<svg width="133" height="130" viewBox="0 0 133 130" fill="none" xmlns="http://www.w3.org/2000/svg">
<g filter="url(#filter0_d_18_114)">
<rect width="122" height="122" rx="61" fill="white" shape-rendering="crispEdges"/>
<mask id="path-2-outside-1_18_114" maskUnits="userSpaceOnUse" x="9" y="9" width="104" height="104" fill="black">
<rect fill="white" x="9" y="9" width="104" height="104"/>
<path d="M61 10C89.1665 10 112 32.8335 112 61C112 89.1665 89.1665 112 61 112C32.8335 112 10 89.1665 10 61C10 32.8335 32.8335 10 61 10ZM61 11C33.3858 11 11 33.3858 11 61C11 88.6142 33.3858 111 61 111C88.6142 111 111 88.6142 111 61C111 33.3858 88.6142 11 61 11ZM61 20.6289C83.2964 20.629 101.371 38.7036 101.371 61C101.371 83.2964 83.2964 101.371 61 101.371C38.7036 101.371 20.629 83.2964 20.6289 61C20.629 38.7036 38.7036 20.629 61 20.6289ZM61 21.2285C39.035 21.2286 21.2286 39.035 21.2285 61C21.2286 82.965 39.035 100.771 61 100.771C82.965 100.771 100.771 82.965 100.771 61C100.771 39.035 82.965 21.2286 61 21.2285ZM61 90.043C61.0551 90.043 61.0995 90.0875 61.0996 90.1426V97.4287C61.0994 97.4837 61.0551 97.5283 61 97.5283C60.9449 97.5283 60.9006 97.4837 60.9004 97.4287V90.1426C60.9005 90.0875 60.9449 90.043 61 90.043ZM38.2002 82.7812C38.2422 82.7457 38.3041 82.751 38.3398 82.793C38.3755 82.8349 38.3709 82.8968 38.3291 82.9326L35.5645 85.2871C35.5224 85.3228 35.4596 85.3184 35.4238 85.2764C35.3881 85.2344 35.3936 85.1716 35.4355 85.1357L38.2002 82.7812ZM82.6562 82.9258C82.6873 82.8806 82.7485 82.8687 82.7939 82.8994L85.793 84.9463C85.8385 84.9774 85.8512 85.0394 85.8203 85.085C85.7892 85.1306 85.7263 85.1425 85.6807 85.1113L82.6816 83.0645C82.6362 83.0333 82.6252 82.9713 82.6562 82.9258ZM60.2334 21.5859C60.6454 21.1348 61.3547 21.1347 61.7666 21.5859C64.1596 24.2075 65.3259 26.8203 65.4492 29.2236C65.5705 31.5902 64.6778 33.7405 62.9736 35.4844C65.6842 37.3529 67.4759 41.1646 67.7021 44.9658C67.917 48.5767 66.7207 52.2069 63.5254 54.166C65.3325 54.8341 66.8026 56.1968 67.6094 57.9316C67.8883 57.2004 68.5373 56.4551 69.4336 55.7998C70.6535 54.908 72.3524 54.1623 74.2783 53.8184C78.1098 53.1342 82.849 54.0384 86.5088 58.5508C88.2537 56.8427 90.4071 55.9489 92.7764 56.0703C95.1796 56.1936 97.7925 57.36 100.414 59.7529C100.865 60.1649 100.865 60.8742 100.414 61.2861C97.7925 63.6791 95.1797 64.8454 92.7764 64.9688C90.4098 65.09 88.2595 64.1973 86.5156 62.4932C84.6471 65.2037 80.8354 66.9954 77.0342 67.2217C73.4873 67.4327 69.9235 66.2812 67.9414 63.2119C67.0049 66.1538 64.2522 68.285 61 68.2852L60.625 68.2754C56.8995 68.0865 53.9122 65.0996 53.7236 61.374L53.7139 61C53.714 57.9802 55.552 55.3889 58.1699 54.2842C57.518 53.9645 56.8633 53.3638 56.2803 52.5664C55.3884 51.3465 54.6428 49.6476 54.2988 47.7217C53.6146 43.8902 54.5188 39.151 59.0312 35.4912C57.3232 33.7463 56.4294 31.5929 56.5508 29.2236C56.6741 26.8204 57.8405 24.2075 60.2334 21.5859ZM61 54.1143C60.3694 54.1143 59.7589 54.2006 59.1787 54.3594V54.543C59.037 54.5429 58.8938 54.5244 58.749 54.4922C56.052 55.425 54.1144 57.9859 54.1143 61C54.1145 64.8025 57.1975 67.8855 61 67.8857C64.1982 67.8856 66.886 65.7046 67.6602 62.749C67.5939 62.6306 67.5296 62.5093 67.4678 62.3857L67.5566 62.3408L67.6465 62.2959C67.6732 62.3494 67.7029 62.4016 67.7305 62.4541C67.8313 61.9854 67.8857 61.4989 67.8857 61C67.8857 60.1926 67.7456 59.4181 67.4902 58.6982H67.457C67.457 58.67 67.4596 58.6417 67.4609 58.6133C66.7253 56.6234 65.0967 55.0665 63.0615 54.4287C62.9969 54.4631 62.9323 54.4992 62.8662 54.5322L62.8213 54.4434L62.7764 54.3535C62.779 54.3522 62.7816 54.35 62.7842 54.3486C62.2152 54.1964 61.6169 54.1143 61 54.1143ZM86.4219 58.7607C82.8053 54.2402 78.1079 53.3371 74.3135 54.0146C72.4151 54.3537 70.7451 55.0886 69.5518 55.9609C68.5759 56.6744 67.934 57.469 67.7285 58.2041C68.0867 59.0651 68.2851 60.0093 68.2852 61L68.2754 61.374C68.2477 61.9205 68.1582 62.4508 68.0166 62.959C69.9288 66.0581 73.4654 67.2342 77.0225 67.0225C80.8257 66.7961 84.6176 64.9842 86.417 62.2852L86.4844 62.1836L86.5703 62.2695C88.2933 63.9925 90.4237 64.8887 92.7666 64.7686C95.1113 64.6482 97.6817 63.5098 100.279 61.1387C100.644 60.806 100.644 60.233 100.279 59.9004C97.6817 57.5294 95.1113 56.3899 92.7666 56.2695C90.4238 56.1494 88.2933 57.0457 86.5703 58.7686L86.4912 58.8477L86.4219 58.7607ZM99.25 61.6289C99.3051 61.6291 99.3505 61.6734 99.3506 61.7285C99.3506 61.7836 99.3051 61.828 99.25 61.8281H95.6074C95.5522 61.8281 95.5078 61.7837 95.5078 61.7285C95.5079 61.6733 95.5522 61.6289 95.6074 61.6289H99.25ZM31.8574 60.9004C31.9125 60.9005 31.957 60.9449 31.957 61C31.957 61.0551 31.9125 61.0995 31.8574 61.0996H24.5713C24.5163 61.0994 24.4717 61.0551 24.4717 61C24.4717 60.9449 24.5163 60.9006 24.5713 60.9004H31.8574ZM99.25 59.4434C99.3051 59.4435 99.3506 59.4878 99.3506 59.543C99.3505 59.5981 99.3051 59.6424 99.25 59.6426H95.6074C95.5522 59.6426 95.5079 59.5982 95.5078 59.543C95.5078 59.4877 95.5522 59.4434 95.6074 59.4434H99.25ZM61.6191 21.7207C61.2865 21.3564 60.7135 21.3564 60.3809 21.7207C58.0098 24.3183 56.8703 26.8887 56.75 29.2334C56.6298 31.5762 57.5261 33.7067 59.249 35.4297L59.3281 35.5088L59.2412 35.5781C54.7207 39.1947 53.8175 43.8921 54.4951 47.6865C54.8342 49.5849 55.5691 51.2549 56.4414 52.4482C57.0729 53.312 57.7687 53.9122 58.4297 54.1816C59.2291 53.8801 60.0951 53.7139 61 53.7139L61.374 53.7236C62.0353 53.7571 62.6731 53.8808 63.2764 54.0791C66.4965 52.1914 67.7183 48.596 67.5029 44.9775C67.2765 41.1743 65.4647 37.3824 62.7656 35.583L62.6641 35.5156L62.75 35.4297C64.473 33.7067 65.3692 31.5763 65.249 29.2334C65.1287 26.8887 63.9902 24.3183 61.6191 21.7207ZM35.3369 35.5146C35.3705 35.4712 35.4328 35.4638 35.4766 35.4971L38.3623 37.7002C38.4061 37.7336 38.4151 37.796 38.3818 37.8398C38.3483 37.8837 38.2861 37.8919 38.2422 37.8584L35.3564 35.6553C35.3125 35.6218 35.3034 35.5585 35.3369 35.5146ZM85.6436 35.3486C85.6863 35.3138 85.7493 35.3195 85.7842 35.3623C85.8189 35.4051 85.8122 35.4681 85.7695 35.5029L82.9561 37.7979C82.9133 37.8328 82.8504 37.8269 82.8154 37.7842C82.7805 37.7414 82.7873 37.6785 82.8301 37.6436L85.6436 35.3486Z"/>
</mask>
<path d="M61 10C89.1665 10 112 32.8335 112 61C112 89.1665 89.1665 112 61 112C32.8335 112 10 89.1665 10 61C10 32.8335 32.8335 10 61 10ZM61 11C33.3858 11 11 33.3858 11 61C11 88.6142 33.3858 111 61 111C88.6142 111 111 88.6142 111 61C111 33.3858 88.6142 11 61 11ZM61 20.6289C83.2964 20.629 101.371 38.7036 101.371 61C101.371 83.2964 83.2964 101.371 61 101.371C38.7036 101.371 20.629 83.2964 20.6289 61C20.629 38.7036 38.7036 20.629 61 20.6289ZM61 21.2285C39.035 21.2286 21.2286 39.035 21.2285 61C21.2286 82.965 39.035 100.771 61 100.771C82.965 100.771 100.771 82.965 100.771 61C100.771 39.035 82.965 21.2286 61 21.2285ZM61 90.043C61.0551 90.043 61.0995 90.0875 61.0996 90.1426V97.4287C61.0994 97.4837 61.0551 97.5283 61 97.5283C60.9449 97.5283 60.9006 97.4837 60.9004 97.4287V90.1426C60.9005 90.0875 60.9449 90.043 61 90.043ZM38.2002 82.7812C38.2422 82.7457 38.3041 82.751 38.3398 82.793C38.3755 82.8349 38.3709 82.8968 38.3291 82.9326L35.5645 85.2871C35.5224 85.3228 35.4596 85.3184 35.4238 85.2764C35.3881 85.2344 35.3936 85.1716 35.4355 85.1357L38.2002 82.7812ZM82.6562 82.9258C82.6873 82.8806 82.7485 82.8687 82.7939 82.8994L85.793 84.9463C85.8385 84.9774 85.8512 85.0394 85.8203 85.085C85.7892 85.1306 85.7263 85.1425 85.6807 85.1113L82.6816 83.0645C82.6362 83.0333 82.6252 82.9713 82.6562 82.9258ZM60.2334 21.5859C60.6454 21.1348 61.3547 21.1347 61.7666 21.5859C64.1596 24.2075 65.3259 26.8203 65.4492 29.2236C65.5705 31.5902 64.6778 33.7405 62.9736 35.4844C65.6842 37.3529 67.4759 41.1646 67.7021 44.9658C67.917 48.5767 66.7207 52.2069 63.5254 54.166C65.3325 54.8341 66.8026 56.1968 67.6094 57.9316C67.8883 57.2004 68.5373 56.4551 69.4336 55.7998C70.6535 54.908 72.3524 54.1623 74.2783 53.8184C78.1098 53.1342 82.849 54.0384 86.5088 58.5508C88.2537 56.8427 90.4071 55.9489 92.7764 56.0703C95.1796 56.1936 97.7925 57.36 100.414 59.7529C100.865 60.1649 100.865 60.8742 100.414 61.2861C97.7925 63.6791 95.1797 64.8454 92.7764 64.9688C90.4098 65.09 88.2595 64.1973 86.5156 62.4932C84.6471 65.2037 80.8354 66.9954 77.0342 67.2217C73.4873 67.4327 69.9235 66.2812 67.9414 63.2119C67.0049 66.1538 64.2522 68.285 61 68.2852L60.625 68.2754C56.8995 68.0865 53.9122 65.0996 53.7236 61.374L53.7139 61C53.714 57.9802 55.552 55.3889 58.1699 54.2842C57.518 53.9645 56.8633 53.3638 56.2803 52.5664C55.3884 51.3465 54.6428 49.6476 54.2988 47.7217C53.6146 43.8902 54.5188 39.151 59.0312 35.4912C57.3232 33.7463 56.4294 31.5929 56.5508 29.2236C56.6741 26.8204 57.8405 24.2075 60.2334 21.5859ZM61 54.1143C60.3694 54.1143 59.7589 54.2006 59.1787 54.3594V54.543C59.037 54.5429 58.8938 54.5244 58.749 54.4922C56.052 55.425 54.1144 57.9859 54.1143 61C54.1145 64.8025 57.1975 67.8855 61 67.8857C64.1982 67.8856 66.886 65.7046 67.6602 62.749C67.5939 62.6306 67.5296 62.5093 67.4678 62.3857L67.5566 62.3408L67.6465 62.2959C67.6732 62.3494 67.7029 62.4016 67.7305 62.4541C67.8313 61.9854 67.8857 61.4989 67.8857 61C67.8857 60.1926 67.7456 59.4181 67.4902 58.6982H67.457C67.457 58.67 67.4596 58.6417 67.4609 58.6133C66.7253 56.6234 65.0967 55.0665 63.0615 54.4287C62.9969 54.4631 62.9323 54.4992 62.8662 54.5322L62.8213 54.4434L62.7764 54.3535C62.779 54.3522 62.7816 54.35 62.7842 54.3486C62.2152 54.1964 61.6169 54.1143 61 54.1143ZM86.4219 58.7607C82.8053 54.2402 78.1079 53.3371 74.3135 54.0146C72.4151 54.3537 70.7451 55.0886 69.5518 55.9609C68.5759 56.6744 67.934 57.469 67.7285 58.2041C68.0867 59.0651 68.2851 60.0093 68.2852 61L68.2754 61.374C68.2477 61.9205 68.1582 62.4508 68.0166 62.959C69.9288 66.0581 73.4654 67.2342 77.0225 67.0225C80.8257 66.7961 84.6176 64.9842 86.417 62.2852L86.4844 62.1836L86.5703 62.2695C88.2933 63.9925 90.4237 64.8887 92.7666 64.7686C95.1113 64.6482 97.6817 63.5098 100.279 61.1387C100.644 60.806 100.644 60.233 100.279 59.9004C97.6817 57.5294 95.1113 56.3899 92.7666 56.2695C90.4238 56.1494 88.2933 57.0457 86.5703 58.7686L86.4912 58.8477L86.4219 58.7607ZM99.25 61.6289C99.3051 61.6291 99.3505 61.6734 99.3506 61.7285C99.3506 61.7836 99.3051 61.828 99.25 61.8281H95.6074C95.5522 61.8281 95.5078 61.7837 95.5078 61.7285C95.5079 61.6733 95.5522 61.6289 95.6074 61.6289H99.25ZM31.8574 60.9004C31.9125 60.9005 31.957 60.9449 31.957 61C31.957 61.0551 31.9125 61.0995 31.8574 61.0996H24.5713C24.5163 61.0994 24.4717 61.0551 24.4717 61C24.4717 60.9449 24.5163 60.9006 24.5713 60.9004H31.8574ZM99.25 59.4434C99.3051 59.4435 99.3506 59.4878 99.3506 59.543C99.3505 59.5981 99.3051 59.6424 99.25 59.6426H95.6074C95.5522 59.6426 95.5079 59.5982 95.5078 59.543C95.5078 59.4877 95.5522 59.4434 95.6074 59.4434H99.25ZM61.6191 21.7207C61.2865 21.3564 60.7135 21.3564 60.3809 21.7207C58.0098 24.3183 56.8703 26.8887 56.75 29.2334C56.6298 31.5762 57.5261 33.7067 59.249 35.4297L59.3281 35.5088L59.2412 35.5781C54.7207 39.1947 53.8175 43.8921 54.4951 47.6865C54.8342 49.5849 55.5691 51.2549 56.4414 52.4482C57.0729 53.312 57.7687 53.9122 58.4297 54.1816C59.2291 53.8801 60.0951 53.7139 61 53.7139L61.374 53.7236C62.0353 53.7571 62.6731 53.8808 63.2764 54.0791C66.4965 52.1914 67.7183 48.596 67.5029 44.9775C67.2765 41.1743 65.4647 37.3824 62.7656 35.583L62.6641 35.5156L62.75 35.4297C64.473 33.7067 65.3692 31.5763 65.249 29.2334C65.1287 26.8887 63.9902 24.3183 61.6191 21.7207ZM35.3369 35.5146C35.3705 35.4712 35.4328 35.4638 35.4766 35.4971L38.3623 37.7002C38.4061 37.7336 38.4151 37.796 38.3818 37.8398C38.3483 37.8837 38.2861 37.8919 38.2422 37.8584L35.3564 35.6553C35.3125 35.6218 35.3034 35.5585 35.3369 35.5146ZM85.6436 35.3486C85.6863 35.3138 85.7493 35.3195 85.7842 35.3623C85.8189 35.4051 85.8122 35.4681 85.7695 35.5029L82.9561 37.7979C82.9133 37.8328 82.8504 37.8269 82.8154 37.7842C82.7805 37.7414 82.7873 37.6785 82.8301 37.6436L85.6436 35.3486Z" fill="url(#paint0_linear_18_114)"/>
<path d="M61 20.6289L61 20.2289L61 20.2289L61 20.6289ZM101.371 61L101.771 61L101.771 61L101.371 61ZM61 101.371L61 101.771L61 101.771L61 101.371ZM20.6289 61L20.2289 61L20.2289 61L20.6289 61ZM61 21.2285L61 20.8285L61 20.8285L61 21.2285ZM21.2285 61L20.8285 61L20.8285 61L21.2285 61ZM61 100.771L61 101.171L61 101.171L61 100.771ZM100.771 61L101.171 61L101.171 61L100.771 61ZM61 90.043L61 89.643H61L61 90.043ZM61.0996 90.1426H61.4996L61.4996 90.1415L61.0996 90.1426ZM61.0996 97.4287L61.4996 97.4304V97.4287H61.0996ZM61 97.5283L61 97.9283L61 97.9283L61 97.5283ZM60.9004 97.4287L60.5004 97.4287L60.5004 97.4304L60.9004 97.4287ZM60.9004 90.1426L60.5004 90.1415V90.1426H60.9004ZM38.2002 82.7812L37.9419 82.4758L37.9408 82.4767L38.2002 82.7812ZM38.3398 82.793L38.6446 82.5339L38.6444 82.5336L38.3398 82.793ZM38.3291 82.9326L38.5885 83.2371L38.5895 83.2362L38.3291 82.9326ZM35.5645 85.2871L35.8233 85.592L35.8238 85.5916L35.5645 85.2871ZM35.4238 85.2764L35.1193 85.5357L35.1194 85.5358L35.4238 85.2764ZM35.4355 85.1357L35.1762 84.8312L35.1757 84.8316L35.4355 85.1357ZM82.6562 82.9258L82.3266 82.6992L82.3258 82.7003L82.6562 82.9258ZM82.7939 82.8994L83.0194 82.569L83.0177 82.5678L82.7939 82.8994ZM85.793 84.9463L85.5675 85.2767L85.5675 85.2767L85.793 84.9463ZM85.8203 85.085L86.1507 85.3104L86.1514 85.3093L85.8203 85.085ZM85.6807 85.1113L85.4552 85.4417L85.4552 85.4417L85.6807 85.1113ZM82.6816 83.0645L82.4553 83.3943L82.4561 83.3948L82.6816 83.0645ZM60.2334 21.5859L59.938 21.3162L59.938 21.3163L60.2334 21.5859ZM61.7666 21.5859L62.062 21.3163L62.062 21.3162L61.7666 21.5859ZM65.4492 29.2236L65.8487 29.2032L65.8487 29.2031L65.4492 29.2236ZM62.9736 35.4844L62.6876 35.2048L62.3558 35.5443L62.7466 35.8137L62.9736 35.4844ZM67.7021 44.9658L68.1014 44.9421L68.1014 44.9421L67.7021 44.9658ZM63.5254 54.166L63.3163 53.825L62.6141 54.2556L63.3867 54.5412L63.5254 54.166ZM67.6094 57.9316L67.2467 58.1003L67.6458 58.9586L67.9831 58.0742L67.6094 57.9316ZM69.4336 55.7998L69.1975 55.4769L69.1975 55.4769L69.4336 55.7998ZM74.2783 53.8184L74.208 53.4246L74.208 53.4246L74.2783 53.8184ZM86.5088 58.5508L86.1981 58.8027L86.4748 59.1438L86.7886 58.8366L86.5088 58.5508ZM92.7764 56.0703L92.7969 55.6708L92.7968 55.6708L92.7764 56.0703ZM100.414 59.7529L100.684 59.4576L100.684 59.4575L100.414 59.7529ZM100.414 61.2861L100.684 61.5816L100.684 61.5815L100.414 61.2861ZM92.7764 64.9688L92.7968 65.3682L92.7969 65.3682L92.7764 64.9688ZM86.5156 62.4932L86.7952 62.2071L86.4557 61.8753L86.1863 62.2661L86.5156 62.4932ZM77.0342 67.2217L77.0579 67.621L77.0579 67.621L77.0342 67.2217ZM67.9414 63.2119L68.2774 62.9949L67.8174 62.2826L67.5603 63.0906L67.9414 63.2119ZM61 68.2852L60.9896 68.6852L61 68.6852L61 68.2852ZM60.625 68.2754L60.6047 68.675L60.6146 68.6753L60.625 68.2754ZM53.7236 61.374L53.3236 61.3845L53.3241 61.3942L53.7236 61.374ZM53.7139 61L53.3137 61L53.314 61.0104L53.7139 61ZM58.1699 54.2842L58.3254 54.6527L59.1341 54.3115L58.346 53.925L58.1699 54.2842ZM56.2803 52.5664L55.9574 52.8025L55.9574 52.8025L56.2803 52.5664ZM54.2988 47.7217L53.9051 47.792L53.9051 47.792L54.2988 47.7217ZM59.0312 35.4912L59.2832 35.8019L59.6243 35.5252L59.3171 35.2114L59.0312 35.4912ZM56.5508 29.2236L56.1513 29.2031L56.1513 29.2032L56.5508 29.2236ZM61 54.1143L61 53.7143L61 53.7143L61 54.1143ZM59.1787 54.3594L59.0731 53.9736L58.7787 54.0541V54.3594H59.1787ZM59.1787 54.543L59.1786 54.943L59.5787 54.943V54.543H59.1787ZM58.749 54.4922L58.8359 54.1017L58.7253 54.0771L58.6183 54.1142L58.749 54.4922ZM54.1143 61L53.7143 61L53.7143 61L54.1143 61ZM61 67.8857L61 68.2857L61 68.2857L61 67.8857ZM67.6602 62.749L68.0471 62.8504L68.088 62.6944L68.0092 62.5537L67.6602 62.749ZM67.4678 62.3857L67.2873 62.0288L66.9319 62.2084L67.11 62.5646L67.4678 62.3857ZM67.5566 62.3408L67.3778 61.983L67.3762 61.9838L67.5566 62.3408ZM67.6465 62.2959L68.0043 62.117L67.8254 61.7592L67.4676 61.9381L67.6465 62.2959ZM67.7305 62.4541L67.3765 62.6403L67.8897 63.6161L68.1215 62.5382L67.7305 62.4541ZM67.8857 61L68.2857 61L68.2857 61L67.8857 61ZM67.4902 58.6982L67.8672 58.5645L67.7727 58.2982H67.4902V58.6982ZM67.457 58.6982L67.057 58.6982L67.0569 59.0982H67.457V58.6982ZM67.4609 58.6133L67.8605 58.6318L67.8643 58.5507L67.8361 58.4746L67.4609 58.6133ZM63.0615 54.4287L63.1811 54.047L63.0215 53.997L62.8738 54.0755L63.0615 54.4287ZM62.8662 54.5322L62.5092 54.7127L62.6889 55.0681L63.0451 54.89L62.8662 54.5322ZM62.8213 54.4434L62.4635 54.6222L62.4643 54.6238L62.8213 54.4434ZM62.7764 54.3535L62.5975 53.9957L62.2397 54.1746L62.4186 54.5324L62.7764 54.3535ZM62.7842 54.3486L62.9634 54.7062L63.9048 54.2344L62.8876 53.9622L62.7842 54.3486ZM86.4219 58.7607L86.7346 58.5113L86.7342 58.5109L86.4219 58.7607ZM74.3135 54.0146L74.2432 53.6209L74.2431 53.6209L74.3135 54.0146ZM69.5518 55.9609L69.3157 55.638L69.3157 55.638L69.5518 55.9609ZM67.7285 58.2041L67.3433 58.0964L67.306 58.2298L67.3592 58.3577L67.7285 58.2041ZM68.2852 61L68.6852 61.0104L68.6852 61L68.2852 61ZM68.2754 61.374L68.675 61.3943L68.6753 61.3845L68.2754 61.374ZM68.0166 62.959L67.6313 62.8516L67.5843 63.0202L67.6762 63.169L68.0166 62.959ZM77.0225 67.0225L77.0462 67.4218L77.0462 67.4218L77.0225 67.0225ZM86.417 62.2852L86.7498 62.507L86.7503 62.5063L86.417 62.2852ZM86.4844 62.1836L86.7672 61.9008L86.4214 61.555L86.1511 61.9625L86.4844 62.1836ZM86.5703 62.2695L86.8532 61.9867L86.8532 61.9867L86.5703 62.2695ZM92.7666 64.7686L92.7871 65.168L92.7871 65.168L92.7666 64.7686ZM100.279 61.1387L100.549 61.4341L100.549 61.434L100.279 61.1387ZM100.279 59.9004L100.549 59.605L100.549 59.605L100.279 59.9004ZM92.7666 56.2695L92.7871 55.8701L92.7871 55.8701L92.7666 56.2695ZM86.5703 58.7686L86.2875 58.4857L86.2875 58.4857L86.5703 58.7686ZM86.4912 58.8477L86.1785 59.0971L86.4576 59.4469L86.7741 59.1305L86.4912 58.8477ZM99.25 61.6289L99.2511 61.2289H99.25V61.6289ZM99.3506 61.7285L99.7506 61.7285L99.7506 61.7281L99.3506 61.7285ZM99.25 61.8281V62.2281L99.2511 62.2281L99.25 61.8281ZM95.5078 61.7285L95.1078 61.7281V61.7285H95.5078ZM31.8574 60.9004L31.8585 60.5004H31.8574V60.9004ZM31.8574 61.0996L31.8574 61.4996L31.8585 61.4996L31.8574 61.0996ZM24.5713 61.0996L24.5696 61.4996H24.5713V61.0996ZM24.5713 60.9004L24.5713 60.5004L24.5696 60.5004L24.5713 60.9004ZM99.25 59.4434L99.2511 59.0434H99.25V59.4434ZM99.3506 59.543L99.7506 59.5433V59.543H99.3506ZM99.25 59.6426L99.25 60.0426L99.2511 60.0426L99.25 59.6426ZM95.5078 59.543L95.1078 59.543L95.1078 59.5433L95.5078 59.543ZM61.6191 21.7207L61.9146 21.451L61.9145 21.451L61.6191 21.7207ZM60.3809 21.7207L60.0855 21.451L60.0854 21.451L60.3809 21.7207ZM56.75 29.2334L56.3505 29.2129L56.3505 29.2129L56.75 29.2334ZM59.249 35.4297L58.9662 35.7125L58.9662 35.7125L59.249 35.4297ZM59.3281 35.5088L59.5776 35.8215L59.9274 35.5424L59.611 35.2259L59.3281 35.5088ZM59.2412 35.5781L58.9918 35.2654L58.9913 35.2658L59.2412 35.5781ZM54.4951 47.6865L54.1013 47.7568L54.1013 47.7569L54.4951 47.6865ZM56.4414 52.4482L56.1185 52.6843L56.1185 52.6843L56.4414 52.4482ZM58.4297 54.1816L58.2787 54.552L58.424 54.6113L58.5709 54.5559L58.4297 54.1816ZM61 53.7139L61.0104 53.3139L61 53.3139L61 53.7139ZM61.374 53.7236L61.3943 53.324L61.3845 53.3238L61.374 53.7236ZM63.2764 54.0791L63.1515 54.4591L63.3229 54.5155L63.4787 54.4242L63.2764 54.0791ZM67.5029 44.9775L67.9022 44.9538L67.9022 44.9538L67.5029 44.9775ZM62.7656 35.583L62.9875 35.2502L62.9868 35.2497L62.7656 35.583ZM62.6641 35.5156L62.3812 35.2328L62.0354 35.5786L62.4429 35.8489L62.6641 35.5156ZM62.75 35.4297L62.4672 35.1468L62.4672 35.1468L62.75 35.4297ZM65.249 29.2334L65.6485 29.2129L65.6485 29.2129L65.249 29.2334ZM35.3369 35.5146L35.0205 35.27L35.019 35.2719L35.3369 35.5146ZM35.4766 35.4971L35.7193 35.1791L35.7186 35.1786L35.4766 35.4971ZM38.3623 37.7002L38.605 37.3823L38.605 37.3823L38.3623 37.7002ZM38.3818 37.8398L38.6998 38.0826L38.7005 38.0816L38.3818 37.8398ZM38.2422 37.8584L37.9995 38.1763L37.9996 38.1764L38.2422 37.8584ZM35.3564 35.6553L35.1137 35.9732L35.1137 35.9732L35.3564 35.6553ZM85.6436 35.3486L85.3909 35.0386L85.3907 35.0387L85.6436 35.3486ZM85.7842 35.3623L86.0947 35.1102L86.0941 35.1094L85.7842 35.3623ZM85.7695 35.5029L86.0224 35.8129L86.0228 35.8126L85.7695 35.5029ZM82.9561 37.7979L82.7032 37.4879L82.7032 37.4879L82.9561 37.7979ZM82.8154 37.7842L82.5055 38.037L82.5056 38.0372L82.8154 37.7842ZM82.8301 37.6436L82.5772 37.3336L82.5772 37.3336L82.8301 37.6436ZM61 10V10.4C88.9456 10.4 111.6 33.0544 111.6 61H112H112.4C112.4 32.6126 89.3874 9.6 61 9.6V10ZM112 61H111.6C111.6 88.9456 88.9456 111.6 61 111.6V112V112.4C89.3874 112.4 112.4 89.3874 112.4 61H112ZM61 112V111.6C33.0544 111.6 10.4 88.9456 10.4 61H10H9.6C9.6 89.3874 32.6126 112.4 61 112.4V112ZM10 61H10.4C10.4 33.0544 33.0544 10.4 61 10.4V10V9.6C32.6126 9.6 9.6 32.6126 9.6 61H10ZM61 11V10.6C33.1648 10.6 10.6 33.1648 10.6 61H11H11.4C11.4 33.6067 33.6067 11.4 61 11.4V11ZM11 61H10.6C10.6 88.8352 33.1648 111.4 61 111.4V111V110.6C33.6067 110.6 11.4 88.3933 11.4 61H11ZM61 111V111.4C88.8352 111.4 111.4 88.8352 111.4 61H111H110.6C110.6 88.3933 88.3933 110.6 61 110.6V111ZM111 61H111.4C111.4 33.1648 88.8352 10.6 61 10.6V11V11.4C88.3933 11.4 110.6 33.6067 110.6 61H111ZM61 20.6289L61 21.0289C83.0755 21.029 100.971 38.9245 100.971 61L101.371 61L101.771 61C101.771 38.4827 83.5173 20.229 61 20.2289L61 20.6289ZM101.371 61L100.971 61C100.971 83.0755 83.0755 100.971 61 100.971L61 101.371L61 101.771C83.5173 101.771 101.771 83.5173 101.771 61L101.371 61ZM61 101.371L61 100.971C38.9245 100.971 21.029 83.0755 21.0289 61L20.6289 61L20.2289 61C20.229 83.5173 38.4827 101.771 61 101.771L61 101.371ZM20.6289 61L21.0289 61C21.029 38.9245 38.9245 21.029 61 21.0289L61 20.6289L61 20.2289C38.4827 20.229 20.229 38.4827 20.2289 61L20.6289 61ZM61 21.2285L61 20.8285C38.814 20.8286 20.8286 38.814 20.8285 61L21.2285 61L21.6285 61C21.6286 39.2559 39.2559 21.6286 61 21.6285L61 21.2285ZM21.2285 61L20.8285 61C20.8286 83.186 38.814 101.171 61 101.171L61 100.771L61 100.371C39.2559 100.371 21.6286 82.7441 21.6285 61L21.2285 61ZM61 100.771L61 101.171C83.186 101.171 101.171 83.186 101.171 61L100.771 61L100.371 61C100.371 82.7441 82.7441 100.371 61 100.371L61 100.771ZM100.771 61L101.171 61C101.171 38.814 83.186 20.8286 61 20.8285L61 21.2285L61 21.6285C82.7441 21.6286 100.371 39.2559 100.371 61L100.771 61ZM61 90.043L61 90.443C60.8331 90.443 60.7001 90.3075 60.6996 90.1437L61.0996 90.1426L61.4996 90.1415C61.4989 89.8674 61.2771 89.643 61 89.643L61 90.043ZM61.0996 90.1426H60.6996V97.4287H61.0996H61.4996V90.1426H61.0996ZM61.0996 97.4287L60.6996 97.4271C60.7003 97.2641 60.8325 97.1283 61 97.1283L61 97.5283L61 97.9283C61.2776 97.9283 61.4985 97.7034 61.4996 97.4304L61.0996 97.4287ZM61 97.5283L61 97.1283C61.1675 97.1283 61.2997 97.2641 61.3004 97.4271L60.9004 97.4287L60.5004 97.4304C60.5015 97.7034 60.7224 97.9283 61 97.9283L61 97.5283ZM60.9004 97.4287H61.3004V90.1426H60.9004H60.5004V97.4287H60.9004ZM60.9004 90.1426L61.3004 90.1437C61.2999 90.3075 61.1669 90.443 61 90.443L61 90.043L61 89.643C60.7229 89.643 60.5011 89.8674 60.5004 90.1415L60.9004 90.1426ZM38.2002 82.7812L38.4585 83.0867C38.3307 83.1947 38.1412 83.1766 38.0353 83.0523L38.3398 82.793L38.6444 82.5336C38.467 82.3254 38.1537 82.2967 37.9419 82.4758L38.2002 82.7812ZM38.3398 82.793L38.0351 83.052C37.9293 82.9276 37.9419 82.7378 38.0687 82.629L38.3291 82.9326L38.5895 83.2362C38.7999 83.0558 38.8217 82.7422 38.6446 82.5339L38.3398 82.793ZM38.3291 82.9326L38.0698 82.6281L35.3051 84.9826L35.5645 85.2871L35.8238 85.5916L38.5885 83.2371L38.3291 82.9326ZM35.5645 85.2871L35.3056 84.9822C35.4282 84.8781 35.618 84.8875 35.7283 85.0169L35.4238 85.2764L35.1194 85.5358C35.3012 85.7492 35.6166 85.7675 35.8233 85.592L35.5645 85.2871ZM35.4238 85.2764L35.7284 85.017C35.8384 85.1462 35.818 85.3351 35.6954 85.4399L35.4355 85.1357L35.1757 84.8316C34.9692 85.0081 34.9377 85.3225 35.1193 85.5357L35.4238 85.2764ZM35.4355 85.1357L35.6949 85.4403L38.4595 83.0858L38.2002 82.7812L37.9408 82.4767L35.1762 84.8312L35.4355 85.1357ZM82.6562 82.9258L82.9859 83.1524C82.8936 83.2867 82.7082 83.3241 82.5702 83.231L82.7939 82.8994L83.0177 82.5678C82.7888 82.4134 82.4811 82.4744 82.3266 82.6992L82.6562 82.9258ZM82.7939 82.8994L82.5685 83.2298L85.5675 85.2767L85.793 84.9463L86.0185 84.6159L83.0194 82.569L82.7939 82.8994ZM85.793 84.9463L85.5675 85.2767C85.4365 85.1873 85.3927 85.0029 85.4892 84.8606L85.8203 85.085L86.1514 85.3093C86.3097 85.0758 86.2405 84.7674 86.0184 84.6159L85.793 84.9463ZM85.8203 85.085L85.4899 84.8595C85.5833 84.7227 85.7692 84.6875 85.9061 84.7809L85.6807 85.1113L85.4552 85.4417C85.6833 85.5974 85.9951 85.5385 86.1507 85.3104L85.8203 85.085ZM85.6807 85.1113L85.9062 84.7809L82.9071 82.7341L82.6816 83.0645L82.4561 83.3948L85.4552 85.4417L85.6807 85.1113ZM82.6816 83.0645L82.908 82.7347C83.0478 82.8306 83.0775 83.0182 82.9867 83.1512L82.6562 82.9258L82.3258 82.7003C82.1729 82.9245 82.2246 83.2359 82.4553 83.3943L82.6816 83.0645ZM60.2334 21.5859L60.5288 21.8557C60.7822 21.5782 61.2179 21.5782 61.4712 21.8556L61.7666 21.5859L62.062 21.3162C61.4914 20.6913 60.5086 20.6915 59.938 21.3162L60.2334 21.5859ZM61.7666 21.5859L61.4712 21.8556C63.8205 24.4293 64.9324 26.9579 65.0497 29.2441L65.4492 29.2236L65.8487 29.2031C65.7194 26.6827 64.4987 23.9857 62.062 21.3163L61.7666 21.5859ZM65.4492 29.2236L65.0497 29.2441C65.1647 31.4881 64.3219 33.5325 62.6876 35.2048L62.9736 35.4844L63.2597 35.7639C65.0337 33.9486 65.9762 31.6923 65.8487 29.2032L65.4492 29.2236ZM62.9736 35.4844L62.7466 35.8137C65.3294 37.5942 67.0818 41.2753 67.3029 44.9896L67.7021 44.9658L68.1014 44.9421C67.87 41.0538 66.039 37.1116 63.2007 35.155L62.9736 35.4844ZM67.7021 44.9658L67.3029 44.9896C67.5123 48.5089 66.3444 51.9684 63.3163 53.825L63.5254 54.166L63.7345 54.507C67.0971 52.4453 68.3217 48.6445 68.1014 44.9421L67.7021 44.9658ZM63.5254 54.166L63.3867 54.5412C65.0944 55.1725 66.4842 56.4607 67.2467 58.1003L67.6094 57.9316L67.9721 57.763C67.1209 55.9328 65.5706 54.4956 63.6641 53.7908L63.5254 54.166ZM67.6094 57.9316L67.9831 58.0742C68.2241 57.4423 68.807 56.7534 69.6697 56.1227L69.4336 55.7998L69.1975 55.4769C68.2675 56.1569 67.5524 56.9585 67.2356 57.7891L67.6094 57.9316ZM69.4336 55.7998L69.6697 56.1227C70.8364 55.2697 72.4776 54.5463 74.3487 54.2121L74.2783 53.8184L74.208 53.4246C72.2272 53.7784 70.4705 54.5463 69.1975 55.4769L69.4336 55.7998ZM74.2783 53.8184L74.3486 54.2121C78.0591 53.5495 82.6435 54.4201 86.1981 58.8027L86.5088 58.5508L86.8195 58.2988C83.0544 53.6567 78.1604 52.7188 74.208 53.4246L74.2783 53.8184ZM86.5088 58.5508L86.7886 58.8366C88.4619 57.1987 90.5092 56.3547 92.7559 56.4698L92.7764 56.0703L92.7968 55.6708C90.305 55.5431 88.0455 56.4868 86.229 58.2649L86.5088 58.5508ZM92.7764 56.0703L92.7559 56.4698C95.042 56.5871 97.5707 57.6992 100.144 60.0484L100.414 59.7529L100.684 59.4575C98.0143 57.0209 95.3172 55.8002 92.7969 55.6708L92.7764 56.0703ZM100.414 59.7529L100.144 60.0483C100.422 60.3017 100.422 60.7374 100.144 60.9908L100.414 61.2861L100.684 61.5815C101.309 61.0109 101.309 60.0281 100.684 59.4576L100.414 59.7529ZM100.414 61.2861L100.144 60.9907C97.5707 63.34 95.0421 64.452 92.7559 64.5693L92.7764 64.9688L92.7969 65.3682C95.3173 65.2389 98.0143 64.0183 100.684 61.5816L100.414 61.2861ZM92.7764 64.9688L92.7559 64.5693C90.5119 64.6843 88.4676 63.8414 86.7952 62.2071L86.5156 62.4932L86.2361 62.7792C88.0514 64.5533 90.3077 65.4958 92.7968 65.3682L92.7764 64.9688ZM86.5156 62.4932L86.1863 62.2661C84.4058 64.8489 80.7247 66.6013 77.0104 66.8224L77.0342 67.2217L77.0579 67.621C80.9462 67.3895 84.8884 65.5585 86.845 62.7202L86.5156 62.4932ZM77.0342 67.2217L77.0104 66.8224C73.5537 67.0281 70.1558 65.9036 68.2774 62.9949L67.9414 63.2119L67.6054 63.4289C69.6912 66.6588 73.4209 67.8374 77.0579 67.621L77.0342 67.2217ZM67.9414 63.2119L67.5603 63.0906C66.675 65.8714 64.0729 67.885 61 67.8852L61 68.2852L61 68.6852C64.4315 68.685 67.3348 66.4362 68.3226 63.3332L67.9414 63.2119ZM61 68.2852L61.0104 67.8853L60.6354 67.8755L60.625 68.2754L60.6146 68.6753L60.9896 68.685L61 68.2852ZM60.625 68.2754L60.6453 67.8759C57.1247 67.6974 54.3014 64.8743 54.1231 61.3538L53.7236 61.374L53.3241 61.3942C53.5231 65.3248 56.6743 68.4756 60.6047 68.6749L60.625 68.2754ZM53.7236 61.374L54.1235 61.3636L54.1137 60.9896L53.7139 61L53.314 61.0104L53.3238 61.3845L53.7236 61.374ZM53.7139 61L54.1139 61C54.114 58.1466 55.8504 55.6972 58.3254 54.6527L58.1699 54.2842L58.0144 53.9156C55.2535 55.0807 53.314 57.8137 53.3139 61L53.7139 61ZM58.1699 54.2842L58.346 53.925C57.7709 53.643 57.1624 53.0952 56.6032 52.3303L56.2803 52.5664L55.9574 52.8025C56.5641 53.6323 57.265 54.2859 57.9938 54.6433L58.1699 54.2842ZM56.2803 52.5664L56.6032 52.3303C55.7502 51.1636 55.0268 49.5224 54.6926 47.6513L54.2988 47.7217L53.9051 47.792C54.2589 49.7728 55.0267 51.5295 55.9574 52.8025L56.2803 52.5664ZM54.2988 47.7217L54.6926 47.6514C54.03 43.9409 54.9005 39.3565 59.2832 35.8019L59.0312 35.4912L58.7793 35.1805C54.1372 38.9456 53.1993 43.8396 53.9051 47.792L54.2988 47.7217ZM59.0312 35.4912L59.3171 35.2114C57.6791 33.5381 56.8351 31.4908 56.9503 29.2441L56.5508 29.2236L56.1513 29.2032C56.0236 31.695 56.9672 33.9545 58.7454 35.771L59.0312 35.4912ZM56.5508 29.2236L56.9503 29.2441C57.0676 26.958 58.1796 24.4293 60.5288 21.8556L60.2334 21.5859L59.938 21.3163C57.5014 23.9857 56.2806 26.6828 56.1513 29.2031L56.5508 29.2236ZM61 54.1143L61 53.7143C60.3327 53.7143 59.6868 53.8056 59.0731 53.9736L59.1787 54.3594L59.2843 54.7452C59.8311 54.5955 60.4061 54.5143 61 54.5143L61 54.1143ZM59.1787 54.3594H58.7787V54.543H59.1787H59.5787V54.3594H59.1787ZM59.1787 54.543L59.1788 54.143C59.0718 54.1429 58.9581 54.1289 58.8359 54.1017L58.749 54.4922L58.6621 54.8826C58.8295 54.9199 59.0023 54.9429 59.1786 54.943L59.1787 54.543ZM58.749 54.4922L58.6183 54.1142C55.7652 55.101 53.7144 57.81 53.7143 61L54.1143 61L54.5143 61C54.5144 58.1617 56.3388 55.7491 58.8798 54.8702L58.749 54.4922ZM54.1143 61L53.7143 61C53.7145 65.0235 56.9765 68.2855 61 68.2857L61 67.8857L61 67.4857C57.4184 67.4855 54.5145 64.5816 54.5143 61L54.1143 61ZM61 67.8857L61 68.2857C64.3847 68.2855 67.228 65.9774 68.0471 62.8504L67.6602 62.749L67.2732 62.6477C66.544 65.4318 64.0117 67.4856 61 67.4857L61 67.8857ZM67.6602 62.749L68.0092 62.5537C67.9459 62.4406 67.8845 62.3248 67.8255 62.2068L67.4678 62.3857L67.11 62.5646C67.1746 62.6939 67.2419 62.8207 67.3111 62.9444L67.6602 62.749ZM67.4678 62.3857L67.6482 62.7427L67.7371 62.6978L67.5566 62.3408L67.3762 61.9838L67.2873 62.0288L67.4678 62.3857ZM67.5566 62.3408L67.7355 62.6986L67.8254 62.6537L67.6465 62.2959L67.4676 61.9381L67.3778 61.983L67.5566 62.3408ZM67.6465 62.2959L67.2887 62.4748C67.3166 62.5305 67.3582 62.6056 67.3765 62.6403L67.7305 62.4541L68.0845 62.2679C68.0475 62.1976 68.0299 62.1683 68.0043 62.117L67.6465 62.2959ZM67.7305 62.4541L68.1215 62.5382C68.2281 62.0427 68.2857 61.528 68.2857 61L67.8857 61L67.4857 61C67.4857 61.4697 67.4345 61.928 67.3394 62.37L67.7305 62.4541ZM67.8857 61L68.2857 61C68.2857 60.146 68.1375 59.3264 67.8672 58.5645L67.4902 58.6982L67.1133 58.832C67.3538 59.5099 67.4857 60.2392 67.4857 61L67.8857 61ZM67.4902 58.6982V58.2982H67.457V58.6982V59.0982H67.4902V58.6982ZM67.457 58.6982L67.857 58.6983C67.857 58.681 67.858 58.6854 67.8605 58.6318L67.4609 58.6133L67.0614 58.5947C67.0612 58.598 67.057 58.6589 67.057 58.6982L67.457 58.6982ZM67.4609 58.6133L67.8361 58.4746C67.0578 56.369 65.3351 54.722 63.1811 54.047L63.0615 54.4287L62.9419 54.8104C64.8584 55.411 66.3929 56.8778 67.0858 58.752L67.4609 58.6133ZM63.0615 54.4287L62.8738 54.0755C62.7987 54.1154 62.7479 54.1442 62.6873 54.1745L62.8662 54.5322L63.0451 54.89C63.1168 54.8542 63.1951 54.8107 63.2492 54.7819L63.0615 54.4287ZM62.8662 54.5322L63.2232 54.3518L63.1783 54.2629L62.8213 54.4434L62.4643 54.6238L62.5092 54.7127L62.8662 54.5322ZM62.8213 54.4434L63.1791 54.2645L63.1341 54.1746L62.7764 54.3535L62.4186 54.5324L62.4635 54.6222L62.8213 54.4434ZM62.7764 54.3535L62.9553 54.7113C62.9729 54.7025 62.9865 54.6941 62.994 54.6892C62.998 54.6867 63.0013 54.6845 63.0033 54.6831C63.0052 54.6818 63.0069 54.6807 63.007 54.6806C63.0076 54.6802 63.0066 54.6809 63.0054 54.6817C63.004 54.6827 63.0014 54.6844 62.9981 54.6865C62.9919 54.6905 62.9797 54.6981 62.9634 54.7062L62.7842 54.3486L62.6049 53.991C62.5874 53.9999 62.5739 54.0082 62.5663 54.013C62.5624 54.0156 62.5592 54.0177 62.5571 54.0191C62.5553 54.0204 62.5536 54.0215 62.5535 54.0215C62.553 54.0219 62.554 54.0212 62.5553 54.0204C62.5567 54.0194 62.5593 54.0177 62.5626 54.0155C62.5689 54.0115 62.5811 54.0039 62.5975 53.9957L62.7764 54.3535ZM62.7842 54.3486L62.8876 53.9622C62.2856 53.8012 61.6526 53.7143 61 53.7143L61 54.1143L61 54.5143C61.5813 54.5143 62.1448 54.5917 62.6808 54.735L62.7842 54.3486ZM86.4219 58.7607L86.7342 58.5109C83.0128 53.8593 78.1596 52.9215 74.2432 53.6209L74.3135 54.0146L74.3838 54.4084C78.0562 53.7526 82.5978 54.6212 86.1095 59.0106L86.4219 58.7607ZM74.3135 54.0146L74.2431 53.6209C72.2898 53.9698 70.562 54.7269 69.3157 55.638L69.5518 55.9609L69.7878 56.2839C70.9281 55.4503 72.5404 54.7377 74.3838 54.4084L74.3135 54.0146ZM69.5518 55.9609L69.3157 55.638C68.3056 56.3766 67.5832 57.2383 67.3433 58.0964L67.7285 58.2041L68.1137 58.3118C68.2848 57.6998 68.8462 56.9723 69.7878 56.2838L69.5518 55.9609ZM67.7285 58.2041L67.3592 58.3577C67.6976 59.1711 67.8851 60.0631 67.8852 61L68.2852 61L68.6852 61C68.6851 59.9554 68.4759 58.9591 68.0978 58.0505L67.7285 58.2041ZM68.2852 61L67.8853 60.9896L67.8755 61.3636L68.2754 61.374L68.6753 61.3845L68.685 61.0104L68.2852 61ZM68.2754 61.374L67.8759 61.3538C67.8498 61.8696 67.7652 62.3708 67.6313 62.8516L68.0166 62.959L68.4019 63.0663C68.5511 62.5308 68.6457 61.9713 68.6749 61.3942L68.2754 61.374ZM68.0166 62.959L67.6762 63.169C69.6911 66.4345 73.3975 67.6389 77.0462 67.4218L77.0225 67.0225L76.9987 66.6232C73.5332 66.8294 70.1666 65.6817 68.357 62.7489L68.0166 62.959ZM77.0225 67.0225L77.0462 67.4218C80.9366 67.1902 84.8622 65.3384 86.7498 62.507L86.417 62.2852L86.0842 62.0633C84.373 64.6301 80.7147 66.402 76.9987 66.6232L77.0225 67.0225ZM86.417 62.2852L86.7503 62.5063L86.8177 62.4047L86.4844 62.1836L86.1511 61.9625L86.0837 62.064L86.417 62.2852ZM86.4844 62.1836L86.2015 62.4664L86.2875 62.5524L86.5703 62.2695L86.8532 61.9867L86.7672 61.9008L86.4844 62.1836ZM86.5703 62.2695L86.2875 62.5524C88.082 64.3469 90.3197 65.2946 92.7871 65.168L92.7666 64.7686L92.7461 64.3691C90.5277 64.4829 88.5046 63.6381 86.8532 61.9867L86.5703 62.2695ZM92.7666 64.7686L92.7871 65.168C95.2489 65.0417 97.9034 63.8489 100.549 61.4341L100.279 61.1387L100.01 60.8432C97.4599 63.1706 94.9738 64.2548 92.7461 64.3691L92.7666 64.7686ZM100.279 61.1387L100.549 61.434C101.087 60.9428 101.087 60.0963 100.549 59.605L100.279 59.9004L100.01 60.1958C100.2 60.3698 100.2 60.6692 100.01 60.8433L100.279 61.1387ZM100.279 59.9004L100.549 59.605C97.9035 57.1902 95.2489 55.9964 92.7871 55.8701L92.7666 56.2695L92.7461 56.669C94.9737 56.7833 97.4599 57.8685 100.01 60.1958L100.279 59.9004ZM92.7666 56.2695L92.7871 55.8701C90.3198 55.7435 88.082 56.6913 86.2875 58.4857L86.5703 58.7686L86.8531 59.0514C88.5045 57.4001 90.5278 56.5552 92.7461 56.669L92.7666 56.2695ZM86.5703 58.7686L86.2875 58.4857L86.2084 58.5648L86.4912 58.8477L86.7741 59.1305L86.8532 59.0514L86.5703 58.7686ZM86.4912 58.8477L86.8039 58.5982L86.7346 58.5113L86.4219 58.7607L86.1092 59.0102L86.1785 59.0971L86.4912 58.8477ZM99.25 61.6289L99.2489 62.0289C99.0897 62.0285 98.9508 61.9001 98.9506 61.7289L99.3506 61.7285L99.7506 61.7281C99.7503 61.4467 99.5205 61.2296 99.2511 61.2289L99.25 61.6289ZM99.3506 61.7285H98.9506C98.9506 61.5566 99.0901 61.4286 99.2489 61.4281L99.25 61.8281L99.2511 62.2281C99.5201 62.2274 99.7506 62.0107 99.7506 61.7285H99.3506ZM99.25 61.8281V61.4281H95.6074V61.8281V62.2281H99.25V61.8281ZM95.6074 61.8281V61.4281C95.7731 61.4281 95.9078 61.5628 95.9078 61.7285H95.5078H95.1078C95.1078 62.0047 95.3313 62.2281 95.6074 62.2281V61.8281ZM95.5078 61.7285L95.9078 61.7289C95.9076 61.8939 95.7736 62.0289 95.6074 62.0289V61.6289V61.2289C95.3309 61.2289 95.1081 61.4527 95.1078 61.7281L95.5078 61.7285ZM95.6074 61.6289V62.0289H99.25V61.6289V61.2289H95.6074V61.6289ZM31.8574 60.9004L31.8563 61.3004C31.6925 61.2999 31.557 61.1669 31.557 61H31.957H32.357C32.357 60.7229 32.1326 60.5011 31.8585 60.5004L31.8574 60.9004ZM31.957 61H31.557C31.557 60.8331 31.6925 60.7001 31.8563 60.6996L31.8574 61.0996L31.8585 61.4996C32.1326 61.4989 32.357 61.2771 32.357 61H31.957ZM31.8574 61.0996V60.6996H24.5713V61.0996V61.4996H31.8574V61.0996ZM24.5713 61.0996L24.5729 60.6996C24.7359 60.7003 24.8717 60.8325 24.8717 61H24.4717H24.0717C24.0717 61.2776 24.2966 61.4985 24.5696 61.4996L24.5713 61.0996ZM24.4717 61H24.8717C24.8717 61.1675 24.7359 61.2997 24.5729 61.3004L24.5713 60.9004L24.5696 60.5004C24.2966 60.5015 24.0717 60.7224 24.0717 61H24.4717ZM24.5713 60.9004V61.3004H31.8574V60.9004V60.5004H24.5713V60.9004ZM99.25 59.4434L99.2489 59.8434C99.0901 59.8429 98.9506 59.7149 98.9506 59.543H99.3506H99.7506C99.7506 59.2608 99.5201 59.0441 99.2511 59.0434L99.25 59.4434ZM99.3506 59.543L98.9506 59.5426C98.9507 59.3713 99.0897 59.243 99.2489 59.2426L99.25 59.6426L99.2511 60.0426C99.5204 60.0418 99.7503 59.8248 99.7506 59.5433L99.3506 59.543ZM99.25 59.6426V59.2426H95.6074V59.6426V60.0426H99.25V59.6426ZM95.6074 59.6426V59.2426C95.7735 59.2426 95.9077 59.3775 95.9078 59.5426L95.5078 59.543L95.1078 59.5433C95.108 59.8188 95.331 60.0426 95.6074 60.0426V59.6426ZM95.5078 59.543H95.9078C95.9078 59.7087 95.7731 59.8434 95.6074 59.8434V59.4434V59.0434C95.3313 59.0434 95.1078 59.2668 95.1078 59.543H95.5078ZM95.6074 59.4434V59.8434H99.25V59.4434V59.0434H95.6074V59.4434ZM61.6191 21.7207L61.9145 21.451C61.4232 20.9129 60.5768 20.913 60.0855 21.451L60.3809 21.7207L60.6762 21.9904C60.8503 21.7998 61.1497 21.7998 61.3237 21.9904L61.6191 21.7207ZM60.3809 21.7207L60.0854 21.451C57.6707 24.0965 56.4769 26.7511 56.3505 29.2129L56.75 29.2334L57.1495 29.2539C57.2638 27.0263 58.3489 24.5401 60.6763 21.9904L60.3809 21.7207ZM56.75 29.2334L56.3505 29.2129C56.224 31.6803 57.1717 33.918 58.9662 35.7125L59.249 35.4297L59.5319 35.1468C57.8805 33.4955 57.0357 31.4722 57.1495 29.2539L56.75 29.2334ZM59.249 35.4297L58.9662 35.7125L59.0453 35.7916L59.3281 35.5088L59.611 35.2259L59.5319 35.1468L59.249 35.4297ZM59.3281 35.5088L59.0787 35.1961L58.9918 35.2654L59.2412 35.5781L59.4907 35.8908L59.5776 35.8215L59.3281 35.5088ZM59.2412 35.5781L58.9913 35.2658C54.3397 38.9872 53.402 43.8404 54.1013 47.7568L54.4951 47.6865L54.8889 47.6162C54.2331 43.9438 55.1016 39.4022 59.4911 35.8905L59.2412 35.5781ZM54.4951 47.6865L54.1013 47.7569C54.4502 49.7102 55.2074 51.438 56.1185 52.6843L56.4414 52.4482L56.7643 52.2122C55.9307 51.0719 55.2181 49.4597 54.8889 47.6162L54.4951 47.6865ZM56.4414 52.4482L56.1185 52.6843C56.775 53.5823 57.5247 54.2447 58.2787 54.552L58.4297 54.1816L58.5807 53.8112C58.0127 53.5797 57.3708 53.0417 56.7643 52.2122L56.4414 52.4482ZM58.4297 54.1816L58.5709 54.5559C59.3262 54.271 60.1445 54.1139 61 54.1139L61 53.7139L61 53.3139C60.0458 53.3139 59.132 53.4892 58.2885 53.8074L58.4297 54.1816ZM61 53.7139L60.9896 54.1137L61.3636 54.1235L61.374 53.7236L61.3845 53.3238L61.0104 53.314L61 53.7139ZM61.374 53.7236L61.3538 54.1231C61.9782 54.1547 62.5809 54.2715 63.1515 54.4591L63.2764 54.0791L63.4013 53.6991C62.7654 53.4901 62.0924 53.3595 61.3942 53.3241L61.374 53.7236ZM63.2764 54.0791L63.4787 54.4242C66.8714 52.4353 68.1231 48.6656 67.9022 44.9538L67.5029 44.9775L67.1036 45.0013C67.3134 48.5264 66.1217 51.9475 63.0741 53.734L63.2764 54.0791ZM67.5029 44.9775L67.9022 44.9538C67.6707 41.0634 65.8189 37.1378 62.9875 35.2502L62.7656 35.583L62.5437 35.9158C65.1105 37.627 66.8824 41.2853 67.1036 45.0013L67.5029 44.9775ZM62.7656 35.583L62.9868 35.2497L62.8852 35.1823L62.6641 35.5156L62.4429 35.8489L62.5445 35.9163L62.7656 35.583ZM62.6641 35.5156L62.9469 35.7985L63.0328 35.7125L62.75 35.4297L62.4672 35.1468L62.3812 35.2328L62.6641 35.5156ZM62.75 35.4297L63.0328 35.7125C64.8274 33.918 65.7751 31.6803 65.6485 29.2129L65.249 29.2334L64.8495 29.2539C64.9633 31.4723 64.1186 33.4954 62.4672 35.1468L62.75 35.4297ZM65.249 29.2334L65.6485 29.2129C65.5222 26.7511 64.3294 24.0966 61.9146 21.451L61.6191 21.7207L61.3237 21.9904C63.6511 24.5401 64.7352 27.0262 64.8495 29.2539L65.249 29.2334ZM35.3369 35.5146L35.6533 35.7593C35.5487 35.8946 35.3607 35.9114 35.2346 35.8156L35.4766 35.4971L35.7186 35.1786C35.505 35.0163 35.1922 35.0479 35.0205 35.27L35.3369 35.5146ZM35.4766 35.4971L35.2338 35.815L38.1196 38.0181L38.3623 37.7002L38.605 37.3823L35.7193 35.1791L35.4766 35.4971ZM38.3623 37.7002L38.1196 38.0181C37.9914 37.9203 37.9608 37.7331 38.0631 37.5981L38.3818 37.8398L38.7005 38.0816C38.8695 37.8588 38.8208 37.547 38.605 37.3823L38.3623 37.7002ZM38.3818 37.8398L38.0639 37.5971C38.1653 37.4643 38.3543 37.4408 38.4848 37.5404L38.2422 37.8584L37.9996 38.1764C38.2179 38.343 38.5313 38.3032 38.6998 38.0826L38.3818 37.8398ZM38.2422 37.8584L38.4849 37.5405L35.5992 35.3373L35.3564 35.6553L35.1137 35.9732L37.9995 38.1763L38.2422 37.8584ZM35.3564 35.6553L35.5992 35.3373C35.727 35.4349 35.7583 35.6218 35.6548 35.7574L35.3369 35.5146L35.019 35.2719C34.8485 35.4953 34.8981 35.8086 35.1137 35.9732L35.3564 35.6553ZM85.6436 35.3486L85.8963 35.6587C85.7714 35.7604 85.5818 35.7471 85.4742 35.6152L85.7842 35.3623L86.0941 35.1094C85.9167 34.892 85.6012 34.8671 85.3909 35.0386L85.6436 35.3486ZM85.7842 35.3623L85.4736 35.6144C85.3681 35.4844 85.39 35.2966 85.5163 35.1933L85.7695 35.5029L86.0228 35.8126C86.2343 35.6396 86.2697 35.3257 86.0947 35.1102L85.7842 35.3623ZM85.7695 35.5029L85.5167 35.193L82.7032 37.4879L82.9561 37.7979L83.2089 38.1078L86.0224 35.8129L85.7695 35.5029ZM82.9561 37.7979L82.7032 37.4879C82.8284 37.3858 83.0179 37.3998 83.1252 37.5311L82.8154 37.7842L82.5056 38.0372C82.6828 38.2541 82.9981 38.2798 83.2089 38.1078L82.9561 37.7979ZM82.8154 37.7842L83.1254 37.5313C83.2319 37.6619 83.2091 37.8506 83.0829 37.9535L82.8301 37.6436L82.5772 37.3336C82.3655 37.5064 82.3291 37.8209 82.5055 38.037L82.8154 37.7842ZM82.8301 37.6436L83.0829 37.9535L85.8964 35.6586L85.6436 35.3486L85.3907 35.0387L82.5772 37.3336L82.8301 37.6436Z" fill="#656565" mask="url(#path-2-outside-1_18_114)"/>
</g>
<defs>
<filter id="filter0_d_18_114" x="0" y="0" width="133" height="130" filterUnits="userSpaceOnUse" color-interpolation-filters="sRGB">
<feFlood flood-opacity="0" result="BackgroundImageFix"/>
<feColorMatrix in="SourceAlpha" type="matrix" values="0 0 0 0 0 0 0 0 0 0 0 0 0 0 0 0 0 0 127 0" result="hardAlpha"/>
<feOffset dx="7" dy="4"/>
<feGaussianBlur stdDeviation="2"/>
<feComposite in2="hardAlpha" operator="out"/>
<feColorMatrix type="matrix" values="0 0 0 0 0 0 0 0 0 0 0 0 0 0 0 0 0 0 0.25 0"/>
<feBlend mode="normal" in2="BackgroundImageFix" result="effect1_dropShadow_18_114"/>
<feBlend mode="normal" in="SourceGraphic" in2="effect1_dropShadow_18_114" result="shape"/>
</filter>
<linearGradient id="paint0_linear_18_114" x1="97.4286" y1="28.2143" x2="24.5714" y2="91.9643" gradientUnits="userSpaceOnUse">
<stop stop-color="#FF3D33"/>
<stop offset="0.5" stop-color="#FF8800"/>
<stop offset="1" stop-color="#90FF68"/>
</linearGradient>
</defs>
</svg>
