<svg width="28" height="28" viewBox="0 0 28 28" fill="none" xmlns="http://www.w3.org/2000/svg">
<path d="M14 0C21.732 0 28 6.26801 28 14C28 21.732 21.732 28 14 28C6.26801 28 0 21.732 0 14C0 6.26801 6.26801 0 14 0ZM14 1C6.8203 1 1 6.8203 1 14C1 21.1797 6.8203 27 14 27C21.1797 27 27 21.1797 27 14C27 6.8203 21.1797 1 14 1ZM14 2.7002C20.2408 2.7002 25.2998 7.75918 25.2998 14C25.2998 20.2408 20.2408 25.2998 14 25.2998C7.75918 25.2998 2.7002 20.2408 2.7002 14C2.7002 7.75918 7.75918 2.7002 14 2.7002ZM14 3.2998C8.09055 3.2998 3.2998 8.09055 3.2998 14C3.2998 19.9094 8.09055 24.7002 14 24.7002C19.9094 24.7002 24.7002 19.9094 24.7002 14C24.7002 8.09055 19.9094 3.2998 14 3.2998ZM14 21.9004C14.0552 21.9004 14.0996 21.9448 14.0996 22V24C14.0996 24.0552 14.0552 24.0996 14 24.0996C13.9448 24.0996 13.9004 24.0552 13.9004 24V22C13.9004 21.9448 13.9448 21.9004 14 21.9004ZM7.69434 19.9238C7.73638 19.8882 7.79921 19.8936 7.83496 19.9355C7.87057 19.9776 7.86522 20.0404 7.82324 20.0762L7.06445 20.7227C7.02241 20.7581 6.95954 20.7529 6.92383 20.7109C6.88821 20.669 6.89376 20.6061 6.93555 20.5703L7.69434 19.9238ZM20.0234 19.9521L20.8467 20.5137C20.8921 20.5449 20.9041 20.6068 20.873 20.6523C20.842 20.6979 20.78 20.7096 20.7344 20.6787L19.9111 20.1162C19.8658 20.0851 19.854 20.024 19.8848 19.9785C19.9159 19.9329 19.9778 19.921 20.0234 19.9521ZM13.2764 3.71094C13.6248 3.19425 14.3752 3.19426 14.7236 3.71094C15.1485 4.34101 15.3289 4.96397 15.292 5.54102C15.2573 6.08151 15.0294 6.57129 14.6484 6.98438C15.3781 7.52799 15.8508 8.56555 15.9121 9.59375C15.9711 10.5851 15.6476 11.5934 14.7744 12.1553C15.2047 12.3361 15.5565 12.6642 15.7715 13.0752C15.865 12.8748 16.0445 12.6803 16.2725 12.5137C16.617 12.2619 17.0943 12.0532 17.6328 11.957C18.6897 11.7684 19.992 12.0134 21.0088 13.2246C21.4231 12.8402 21.9158 12.611 22.459 12.5762C23.036 12.5392 23.659 12.7197 24.2891 13.1445C24.8058 13.493 24.8058 14.2434 24.2891 14.5918C23.659 15.0167 23.036 15.1971 22.459 15.1602C21.9185 15.1255 21.4287 14.8975 21.0156 14.5166C20.472 15.2463 19.4344 15.719 18.4062 15.7803C17.4327 15.8382 16.4425 15.5275 15.875 14.6895C15.5938 15.4538 14.8619 16 14 16C12.8954 16 12 15.1046 12 14C12 13.2029 12.4668 12.5157 13.1416 12.1943C12.9647 12.0945 12.7939 11.9305 12.6455 11.7275C12.3937 11.383 12.185 10.9057 12.0889 10.3672C11.9003 9.31035 12.1453 8.008 13.3564 6.99121C12.9721 6.57687 12.7429 6.08419 12.708 5.54102C12.6711 4.96397 12.8515 4.34101 13.2764 3.71094ZM14 12.4004C13.1163 12.4004 12.4004 13.1163 12.4004 14C12.4004 14.8837 13.1163 15.5996 14 15.5996C14.8837 15.5996 15.5996 14.8837 15.5996 14C15.5996 13.1163 14.8837 12.4004 14 12.4004ZM20.9219 13.4307C19.9482 12.2136 18.6874 11.9724 17.668 12.1543C17.1567 12.2456 16.7086 12.4433 16.3906 12.6758C16.0665 12.9128 15.9004 13.1677 15.9004 13.3682H15.8965C15.9627 13.5669 16 13.779 16 14C16 14.149 15.9821 14.2939 15.9512 14.4336C16.4479 15.3029 17.41 15.6397 18.3945 15.5811C19.4226 15.5197 20.4391 15.0293 20.917 14.3125L20.9844 14.2109L21.0703 14.2979C21.4695 14.6971 21.948 14.9273 22.4717 14.9609C22.9959 14.9945 23.5756 14.8311 24.1768 14.4258C24.231 14.3892 24.2769 14.3462 24.3164 14.2998H23.5C23.4448 14.2998 23.4005 14.2553 23.4004 14.2002C23.4004 14.145 23.4448 14.1006 23.5 14.1006H24.4346C24.4823 13.9717 24.4876 13.8314 24.4531 13.6992H23.5C23.4448 13.6992 23.4004 13.6548 23.4004 13.5996C23.4006 13.5446 23.4449 13.5 23.5 13.5H24.3652C24.3177 13.4282 24.255 13.3633 24.1768 13.3105C23.5756 12.9052 22.9959 12.7418 22.4717 12.7754C21.948 12.809 21.4695 13.0393 21.0703 13.4385L20.9922 13.5176L20.9219 13.4307ZM6 13.9004C6.05523 13.9004 6.09961 13.9448 6.09961 14C6.09961 14.0552 6.05523 14.0996 6 14.0996H4C3.94477 14.0996 3.90039 14.0552 3.90039 14C3.90039 13.9448 3.94477 13.9004 4 13.9004H6ZM14.5576 3.82324C14.2885 3.42414 13.7115 3.42413 13.4424 3.82324C13.0371 4.42442 12.8737 5.00407 12.9072 5.52832C12.9408 6.05196 13.1711 6.53047 13.5703 6.92969L13.6494 7.00781L13.5625 7.07812C12.3454 8.05179 12.1042 9.31259 12.2861 10.332C12.3774 10.8433 12.5752 11.2914 12.8076 11.6094C13.0103 11.8866 13.2265 12.0469 13.4102 12.0879C13.5966 12.0305 13.7947 12 14 12C14.1813 12 14.3564 12.0261 14.5234 12.0713C15.4237 11.5818 15.7724 10.6055 15.7129 9.60547C15.6516 8.57742 15.1612 7.56088 14.4443 7.08301L14.3428 7.01562L14.4297 6.92969C14.8289 6.53047 15.0592 6.05196 15.0928 5.52832C15.1263 5.00407 14.9629 4.42441 14.5576 3.82324ZM6.89746 6.95996C6.9309 6.91628 6.99327 6.90825 7.03711 6.94141L7.83008 7.54688C7.87365 7.58046 7.88205 7.64275 7.84863 7.68652C7.81514 7.73027 7.75284 7.73841 7.70898 7.70508L6.91602 7.09961C6.87262 7.06599 6.86409 7.00367 6.89746 6.95996ZM20.7197 6.90234C20.7624 6.86782 20.8245 6.87361 20.8594 6.91602C20.8942 6.95868 20.8881 7.02166 20.8457 7.05664L20.0732 7.68652C20.0305 7.7214 19.9675 7.71553 19.9326 7.67285C19.8977 7.63006 19.9045 7.56714 19.9473 7.53223L20.7197 6.90234Z" fill="url(#paint0_linear_15_16)"/>
<defs>
<linearGradient id="paint0_linear_15_16" x1="24" y1="5" x2="4" y2="22.5" gradientUnits="userSpaceOnUse">
<stop stop-color="#FF3D33"/>
<stop offset="0.5" stop-color="#FF8800"/>
<stop offset="1" stop-color="#90FF68"/>
</linearGradient>
</defs>
</svg>
