<svg width="29" height="29" viewBox="0 0 29 29" fill="none" xmlns="http://www.w3.org/2000/svg">
<mask id="path-1-outside-1_15_16" maskUnits="userSpaceOnUse" x="-0.6" y="-0.600006" width="30" height="30" fill="black">
<rect fill="white" x="-0.6" y="-0.600006" width="30" height="30"/>
<path d="M14.4 0.399994C22.132 0.399994 28.4 6.66801 28.4 14.4C28.4 22.132 22.132 28.4 14.4 28.4C6.66801 28.4 0.4 22.132 0.4 14.4C0.4 6.66801 6.66801 0.399994 14.4 0.399994ZM14.4 1.39999C7.2203 1.39999 1.4 7.22029 1.4 14.4C1.4 21.5797 7.2203 27.4 14.4 27.4C21.5797 27.4 27.4 21.5797 27.4 14.4C27.4 7.22029 21.5797 1.39999 14.4 1.39999ZM14.4 3.10019C20.6408 3.10019 25.6998 8.15918 25.6998 14.4C25.6998 20.6408 20.6408 25.6998 14.4 25.6998C8.15918 25.6998 3.10019 20.6408 3.10019 14.4C3.10019 8.15918 8.15918 3.10019 14.4 3.10019ZM14.4 3.6998C8.49055 3.6998 3.6998 8.49055 3.6998 14.4C3.6998 20.3094 8.49055 25.1002 14.4 25.1002C20.3094 25.1002 25.1002 20.3094 25.1002 14.4C25.1002 8.49055 20.3094 3.6998 14.4 3.6998ZM14.4 22.3004C14.4552 22.3004 14.4996 22.3448 14.4996 22.4V24.4C14.4996 24.4552 14.4552 24.4996 14.4 24.4996C14.3448 24.4996 14.3004 24.4552 14.3004 24.4V22.4C14.3004 22.3448 14.3448 22.3004 14.4 22.3004ZM8.09434 20.3238C8.13638 20.2882 8.19921 20.2936 8.23496 20.3355C8.27057 20.3776 8.26522 20.4404 8.22324 20.4762L7.46445 21.1227C7.42241 21.1581 7.35954 21.1529 7.32383 21.1109C7.28821 21.069 7.29376 21.0061 7.33555 20.9703L8.09434 20.3238ZM20.4234 20.3521L21.2467 20.9137C21.2921 20.9449 21.3041 21.0068 21.273 21.0523C21.242 21.0979 21.18 21.1096 21.1344 21.0787L20.3111 20.5162C20.2658 20.4851 20.254 20.424 20.2848 20.3785C20.3159 20.3329 20.3778 20.321 20.4234 20.3521ZM13.6764 4.11093C14.0248 3.59425 14.7752 3.59426 15.1236 4.11093C15.5485 4.741 15.7289 5.36397 15.692 5.94101C15.6573 6.48151 15.4294 6.97129 15.0484 7.38437C15.7781 7.92798 16.2508 8.96554 16.3121 9.99374C16.3711 10.9851 16.0476 11.9933 15.1744 12.5553C15.6047 12.7361 15.9565 13.0642 16.1715 13.4752C16.265 13.2748 16.4445 13.0803 16.6725 12.9137C17.017 12.6619 17.4943 12.4532 18.0328 12.357C19.0897 12.1684 20.392 12.4134 21.4088 13.6246C21.8231 13.2402 22.3158 13.011 22.859 12.9762C23.436 12.9392 24.059 13.1197 24.6891 13.5445C25.2057 13.8929 25.2057 14.6434 24.6891 14.9918C24.059 15.4166 23.436 15.5971 22.859 15.5602C22.3185 15.5255 21.8287 15.2975 21.4156 14.9166C20.872 15.6463 19.8344 16.119 18.8062 16.1803C17.8327 16.2382 16.8425 15.9275 16.275 15.0894C15.9938 15.8538 15.2619 16.4 14.4 16.4C13.2954 16.4 12.4 15.5046 12.4 14.4C12.4 13.6029 12.8668 12.9157 13.5416 12.5943C13.3647 12.4945 13.1939 12.3305 13.0455 12.1275C12.7937 11.783 12.585 11.3057 12.4889 10.7672C12.3003 9.71034 12.5453 8.40799 13.7564 7.3912C13.3721 6.97687 13.1429 6.48419 13.108 5.94101C13.0711 5.36397 13.2515 4.74101 13.6764 4.11093ZM14.4 12.8004C13.5163 12.8004 12.8004 13.5163 12.8004 14.4C12.8004 15.2836 13.5163 15.9996 14.4 15.9996C15.2837 15.9996 15.9996 15.2836 15.9996 14.4C15.9996 13.5163 15.2837 12.8004 14.4 12.8004ZM21.3219 13.8307C20.3482 12.6136 19.0874 12.3724 18.068 12.5543C17.5567 12.6456 17.1086 12.8433 16.7906 13.0758C16.4665 13.3128 16.3004 13.5677 16.3004 13.7682H16.2965C16.3627 13.9669 16.4 14.179 16.4 14.4C16.4 14.549 16.3821 14.6939 16.3512 14.8336C16.8479 15.7029 17.81 16.0396 18.7945 15.981C19.8226 15.9197 20.8391 15.4293 21.317 14.7125L21.3844 14.6109L21.4703 14.6978C21.8695 15.0971 22.348 15.3273 22.8717 15.3609C23.3959 15.3945 23.9756 15.2311 24.5768 14.8258C24.631 14.7892 24.6769 14.7462 24.7164 14.6998H23.9C23.8448 14.6998 23.8005 14.6553 23.8004 14.6002C23.8004 14.545 23.8448 14.5006 23.9 14.5006H24.8346C24.8823 14.3717 24.8876 14.2314 24.8531 14.0992H23.9C23.8448 14.0992 23.8004 14.0548 23.8004 13.9996C23.8006 13.9446 23.8449 13.9 23.9 13.9H24.7652C24.7177 13.8282 24.655 13.7633 24.5768 13.7105C23.9756 13.3052 23.3959 13.1418 22.8717 13.1754C22.348 13.209 21.8695 13.4392 21.4703 13.8385L21.3922 13.9176L21.3219 13.8307ZM6.4 14.3004C6.45523 14.3004 6.49961 14.3448 6.49961 14.4C6.49961 14.4552 6.45523 14.4996 6.4 14.4996H4.4C4.34477 14.4996 4.30039 14.4552 4.30039 14.4C4.30039 14.3448 4.34477 14.3004 4.4 14.3004H6.4ZM14.9576 4.22324C14.6885 3.82414 14.1115 3.82413 13.8424 4.22324C13.4371 4.82441 13.2737 5.40406 13.3072 5.92831C13.3408 6.45195 13.5711 6.93046 13.9703 7.32968L14.0494 7.40781L13.9625 7.47812C12.7454 8.45178 12.5042 9.71258 12.6861 10.732C12.7774 11.2433 12.9752 11.6914 13.2076 12.0094C13.4103 12.2866 13.6265 12.4469 13.8102 12.4879C13.9966 12.4304 14.1947 12.4 14.4 12.4C14.5813 12.4 14.7564 12.4261 14.9234 12.4713C15.8237 11.9818 16.1724 11.0055 16.1129 10.0055C16.0516 8.97741 15.5611 7.96088 14.8443 7.483L14.7428 7.41562L14.8297 7.32968C15.2289 6.93046 15.4592 6.45195 15.4928 5.92831C15.5263 5.40406 15.3629 4.82441 14.9576 4.22324ZM7.29746 7.35995C7.3309 7.31628 7.39327 7.30825 7.43711 7.3414L8.23008 7.94687C8.27365 7.98045 8.28205 8.04274 8.24863 8.08652C8.21514 8.13027 8.15284 8.13841 8.10898 8.10507L7.31602 7.4996C7.27261 7.46598 7.26409 7.40366 7.29746 7.35995ZM21.1197 7.30234C21.1624 7.26781 21.2245 7.27361 21.2594 7.31601C21.2942 7.35867 21.2881 7.42166 21.2457 7.45663L20.4732 8.08652C20.4305 8.1214 20.3675 8.11553 20.3326 8.07285C20.2977 8.03005 20.3045 7.96713 20.3473 7.93222L21.1197 7.30234Z"/>
</mask>
<path d="M14.4 0.399994C22.132 0.399994 28.4 6.66801 28.4 14.4C28.4 22.132 22.132 28.4 14.4 28.4C6.66801 28.4 0.4 22.132 0.4 14.4C0.4 6.66801 6.66801 0.399994 14.4 0.399994ZM14.4 1.39999C7.2203 1.39999 1.4 7.22029 1.4 14.4C1.4 21.5797 7.2203 27.4 14.4 27.4C21.5797 27.4 27.4 21.5797 27.4 14.4C27.4 7.22029 21.5797 1.39999 14.4 1.39999ZM14.4 3.10019C20.6408 3.10019 25.6998 8.15918 25.6998 14.4C25.6998 20.6408 20.6408 25.6998 14.4 25.6998C8.15918 25.6998 3.10019 20.6408 3.10019 14.4C3.10019 8.15918 8.15918 3.10019 14.4 3.10019ZM14.4 3.6998C8.49055 3.6998 3.6998 8.49055 3.6998 14.4C3.6998 20.3094 8.49055 25.1002 14.4 25.1002C20.3094 25.1002 25.1002 20.3094 25.1002 14.4C25.1002 8.49055 20.3094 3.6998 14.4 3.6998ZM14.4 22.3004C14.4552 22.3004 14.4996 22.3448 14.4996 22.4V24.4C14.4996 24.4552 14.4552 24.4996 14.4 24.4996C14.3448 24.4996 14.3004 24.4552 14.3004 24.4V22.4C14.3004 22.3448 14.3448 22.3004 14.4 22.3004ZM8.09434 20.3238C8.13638 20.2882 8.19921 20.2936 8.23496 20.3355C8.27057 20.3776 8.26522 20.4404 8.22324 20.4762L7.46445 21.1227C7.42241 21.1581 7.35954 21.1529 7.32383 21.1109C7.28821 21.069 7.29376 21.0061 7.33555 20.9703L8.09434 20.3238ZM20.4234 20.3521L21.2467 20.9137C21.2921 20.9449 21.3041 21.0068 21.273 21.0523C21.242 21.0979 21.18 21.1096 21.1344 21.0787L20.3111 20.5162C20.2658 20.4851 20.254 20.424 20.2848 20.3785C20.3159 20.3329 20.3778 20.321 20.4234 20.3521ZM13.6764 4.11093C14.0248 3.59425 14.7752 3.59426 15.1236 4.11093C15.5485 4.741 15.7289 5.36397 15.692 5.94101C15.6573 6.48151 15.4294 6.97129 15.0484 7.38437C15.7781 7.92798 16.2508 8.96554 16.3121 9.99374C16.3711 10.9851 16.0476 11.9933 15.1744 12.5553C15.6047 12.7361 15.9565 13.0642 16.1715 13.4752C16.265 13.2748 16.4445 13.0803 16.6725 12.9137C17.017 12.6619 17.4943 12.4532 18.0328 12.357C19.0897 12.1684 20.392 12.4134 21.4088 13.6246C21.8231 13.2402 22.3158 13.011 22.859 12.9762C23.436 12.9392 24.059 13.1197 24.6891 13.5445C25.2057 13.8929 25.2057 14.6434 24.6891 14.9918C24.059 15.4166 23.436 15.5971 22.859 15.5602C22.3185 15.5255 21.8287 15.2975 21.4156 14.9166C20.872 15.6463 19.8344 16.119 18.8062 16.1803C17.8327 16.2382 16.8425 15.9275 16.275 15.0894C15.9938 15.8538 15.2619 16.4 14.4 16.4C13.2954 16.4 12.4 15.5046 12.4 14.4C12.4 13.6029 12.8668 12.9157 13.5416 12.5943C13.3647 12.4945 13.1939 12.3305 13.0455 12.1275C12.7937 11.783 12.585 11.3057 12.4889 10.7672C12.3003 9.71034 12.5453 8.40799 13.7564 7.3912C13.3721 6.97687 13.1429 6.48419 13.108 5.94101C13.0711 5.36397 13.2515 4.74101 13.6764 4.11093ZM14.4 12.8004C13.5163 12.8004 12.8004 13.5163 12.8004 14.4C12.8004 15.2836 13.5163 15.9996 14.4 15.9996C15.2837 15.9996 15.9996 15.2836 15.9996 14.4C15.9996 13.5163 15.2837 12.8004 14.4 12.8004ZM21.3219 13.8307C20.3482 12.6136 19.0874 12.3724 18.068 12.5543C17.5567 12.6456 17.1086 12.8433 16.7906 13.0758C16.4665 13.3128 16.3004 13.5677 16.3004 13.7682H16.2965C16.3627 13.9669 16.4 14.179 16.4 14.4C16.4 14.549 16.3821 14.6939 16.3512 14.8336C16.8479 15.7029 17.81 16.0396 18.7945 15.981C19.8226 15.9197 20.8391 15.4293 21.317 14.7125L21.3844 14.6109L21.4703 14.6978C21.8695 15.0971 22.348 15.3273 22.8717 15.3609C23.3959 15.3945 23.9756 15.2311 24.5768 14.8258C24.631 14.7892 24.6769 14.7462 24.7164 14.6998H23.9C23.8448 14.6998 23.8005 14.6553 23.8004 14.6002C23.8004 14.545 23.8448 14.5006 23.9 14.5006H24.8346C24.8823 14.3717 24.8876 14.2314 24.8531 14.0992H23.9C23.8448 14.0992 23.8004 14.0548 23.8004 13.9996C23.8006 13.9446 23.8449 13.9 23.9 13.9H24.7652C24.7177 13.8282 24.655 13.7633 24.5768 13.7105C23.9756 13.3052 23.3959 13.1418 22.8717 13.1754C22.348 13.209 21.8695 13.4392 21.4703 13.8385L21.3922 13.9176L21.3219 13.8307ZM6.4 14.3004C6.45523 14.3004 6.49961 14.3448 6.49961 14.4C6.49961 14.4552 6.45523 14.4996 6.4 14.4996H4.4C4.34477 14.4996 4.30039 14.4552 4.30039 14.4C4.30039 14.3448 4.34477 14.3004 4.4 14.3004H6.4ZM14.9576 4.22324C14.6885 3.82414 14.1115 3.82413 13.8424 4.22324C13.4371 4.82441 13.2737 5.40406 13.3072 5.92831C13.3408 6.45195 13.5711 6.93046 13.9703 7.32968L14.0494 7.40781L13.9625 7.47812C12.7454 8.45178 12.5042 9.71258 12.6861 10.732C12.7774 11.2433 12.9752 11.6914 13.2076 12.0094C13.4103 12.2866 13.6265 12.4469 13.8102 12.4879C13.9966 12.4304 14.1947 12.4 14.4 12.4C14.5813 12.4 14.7564 12.4261 14.9234 12.4713C15.8237 11.9818 16.1724 11.0055 16.1129 10.0055C16.0516 8.97741 15.5611 7.96088 14.8443 7.483L14.7428 7.41562L14.8297 7.32968C15.2289 6.93046 15.4592 6.45195 15.4928 5.92831C15.5263 5.40406 15.3629 4.82441 14.9576 4.22324ZM7.29746 7.35995C7.3309 7.31628 7.39327 7.30825 7.43711 7.3414L8.23008 7.94687C8.27365 7.98045 8.28205 8.04274 8.24863 8.08652C8.21514 8.13027 8.15284 8.13841 8.10898 8.10507L7.31602 7.4996C7.27261 7.46598 7.26409 7.40366 7.29746 7.35995ZM21.1197 7.30234C21.1624 7.26781 21.2245 7.27361 21.2594 7.31601C21.2942 7.35867 21.2881 7.42166 21.2457 7.45663L20.4732 8.08652C20.4305 8.1214 20.3675 8.11553 20.3326 8.07285C20.2977 8.03005 20.3045 7.96713 20.3473 7.93222L21.1197 7.30234Z" fill="url(#paint0_linear_15_16)"/>
<path d="M14.4 22.3004L14.4 21.9004H14.4L14.4 22.3004ZM14.4996 22.4H14.0996H14.4996ZM14.4996 24.4L14.8996 24.4V24.4H14.4996ZM14.4 24.4996L14.4 24.8996L14.4 24.8996L14.4 24.4996ZM14.3004 24.4H14.7004H14.3004ZM14.3004 22.4L13.9004 22.4V22.4H14.3004ZM8.09434 20.3238L7.8358 20.0186L7.83492 20.0193L8.09434 20.3238ZM8.23496 20.3355L8.5402 20.077L8.53948 20.0762L8.23496 20.3355ZM8.22324 20.4762L7.96389 20.1716L7.96383 20.1717L8.22324 20.4762ZM7.46445 21.1227L7.72247 21.4283L7.72386 21.4271L7.46445 21.1227ZM7.32383 21.1109L7.01888 21.3698L7.0193 21.3703L7.32383 21.1109ZM7.33555 20.9703L7.07613 20.6658L7.07525 20.6666L7.33555 20.9703ZM20.4234 20.3521L20.198 20.6825L20.198 20.6826L20.4234 20.3521ZM21.2467 20.9137L21.4732 20.584L21.4721 20.5832L21.2467 20.9137ZM21.273 21.0523L21.6034 21.2778L21.6035 21.2778L21.273 21.0523ZM21.1344 21.0787L20.9087 21.409L20.9099 21.4098L21.1344 21.0787ZM20.3111 20.5162L20.0848 20.846L20.0855 20.8465L20.3111 20.5162ZM20.2848 20.3785L19.9544 20.153L19.9534 20.1545L20.2848 20.3785ZM13.6764 4.11093L13.3447 3.88729L13.3447 3.8873L13.6764 4.11093ZM15.1236 4.11093L15.4553 3.8873L15.4553 3.88729L15.1236 4.11093ZM15.692 5.94101L16.0912 5.96662L16.0912 5.96657L15.692 5.94101ZM15.0484 7.38437L14.7544 7.1132L14.4532 7.43976L14.8095 7.70514L15.0484 7.38437ZM16.3121 9.99374L16.7114 9.96998L16.7114 9.96994L16.3121 9.99374ZM15.1744 12.5553L14.958 12.2189L14.3194 12.6298L15.0194 12.924L15.1744 12.5553ZM16.1715 13.4752L15.8171 13.6606L16.1919 14.3771L16.5339 13.6444L16.1715 13.4752ZM16.6725 12.9137L16.4364 12.5907L16.4364 12.5908L16.6725 12.9137ZM18.0328 12.357L17.9625 11.9632L17.9625 11.9633L18.0328 12.357ZM21.4088 13.6246L21.1024 13.8818L21.3727 14.2037L21.6808 13.9179L21.4088 13.6246ZM22.859 12.9762L22.8334 12.577L22.8334 12.577L22.859 12.9762ZM24.6891 13.5445L24.9127 13.2129L24.9127 13.2129L24.6891 13.5445ZM24.6891 14.9918L24.9127 15.3234L24.9127 15.3234L24.6891 14.9918ZM22.859 15.5602L22.8334 15.9593L22.8334 15.9593L22.859 15.5602ZM21.4156 14.9166L21.6868 14.6225L21.3602 14.3214L21.0949 14.6776L21.4156 14.9166ZM18.8062 16.1803L18.83 16.5796L18.83 16.5796L18.8062 16.1803ZM16.275 15.0894L16.6062 14.8652L16.1688 14.2193L15.8996 14.9514L16.275 15.0894ZM13.5416 12.5943L13.7136 12.9555L14.4087 12.6244L13.7382 12.246L13.5416 12.5943ZM13.0455 12.1275L12.7226 12.3636L12.7226 12.3636L13.0455 12.1275ZM12.4889 10.7672L12.0951 10.8375L12.0951 10.8375L12.4889 10.7672ZM13.7564 7.3912L14.0136 7.69756L14.3356 7.42731L14.0497 7.11917L13.7564 7.3912ZM13.108 5.94101L12.7088 5.96657L12.7088 5.96662L13.108 5.94101ZM21.3219 13.8307L21.0095 14.0805L21.0109 14.0822L21.3219 13.8307ZM18.068 12.5543L17.9977 12.1605L17.9977 12.1605L18.068 12.5543ZM16.7906 13.0758L16.5546 12.7529L16.5545 12.7529L16.7906 13.0758ZM16.3004 13.7682V14.1682H16.7004V13.7682H16.3004ZM16.2965 13.7682V13.3682H15.7417L15.917 13.8945L16.2965 13.7682ZM16.3512 14.8336L15.9606 14.7472L15.9273 14.898L16.0039 15.032L16.3512 14.8336ZM18.7945 15.981L18.8183 16.3803L18.8183 16.3803L18.7945 15.981ZM21.317 14.7125L21.6498 14.9344L21.6503 14.9336L21.317 14.7125ZM21.3844 14.6109L21.6688 14.3297L21.323 13.9799L21.0511 14.3898L21.3844 14.6109ZM21.4703 14.6978L21.1859 14.9791L21.1875 14.9807L21.4703 14.6978ZM22.8717 15.3609L22.8461 15.7601L22.8461 15.7601L22.8717 15.3609ZM24.5768 14.8258L24.8004 15.1574L24.8004 15.1574L24.5768 14.8258ZM24.7164 14.6998L25.021 14.9591L25.5823 14.2998H24.7164V14.6998ZM23.8004 14.6002L23.4004 14.6002L23.4004 14.6009L23.8004 14.6002ZM24.8346 14.5006V14.9006H25.113L25.2097 14.6394L24.8346 14.5006ZM24.8531 14.0992L25.2402 13.9983L25.1622 13.6992H24.8531V14.0992ZM23.8004 13.9996L23.4004 13.9981V13.9996H23.8004ZM24.7652 13.9V14.3H25.5099L25.0987 13.6791L24.7652 13.9ZM24.5768 13.7105L24.8004 13.3789L24.8004 13.3789L24.5768 13.7105ZM22.8717 13.1754L22.8461 12.7762L22.8461 12.7762L22.8717 13.1754ZM21.4703 13.8385L21.1875 13.5556L21.1857 13.5574L21.4703 13.8385ZM21.3922 13.9176L21.0812 14.1692L21.3625 14.5169L21.6768 14.1987L21.3922 13.9176ZM14.9576 4.22324L15.2893 3.99963L15.2893 3.99959L14.9576 4.22324ZM13.8424 4.22324L13.5107 3.9996L13.5107 3.99963L13.8424 4.22324ZM13.3072 5.92831L12.908 5.95388L12.908 5.95394L13.3072 5.92831ZM13.9703 7.32968L13.6875 7.61253L13.6892 7.61428L13.9703 7.32968ZM14.0494 7.40781L14.301 7.71879L14.6487 7.43749L14.3305 7.12321L14.0494 7.40781ZM13.9625 7.47812L14.2124 7.79047L14.2141 7.7891L13.9625 7.47812ZM12.6861 10.732L12.2924 10.8023L12.2924 10.8023L12.6861 10.732ZM13.2076 12.0094L12.8847 12.2454L12.8847 12.2455L13.2076 12.0094ZM13.8102 12.4879L13.7231 12.8783L13.8266 12.9014L13.9279 12.8702L13.8102 12.4879ZM14.9234 12.4713L14.8189 12.8574L14.9737 12.8993L15.1145 12.8227L14.9234 12.4713ZM16.1129 10.0055L16.5122 9.9817L16.5122 9.98165L16.1129 10.0055ZM14.8443 7.483L15.0662 7.15018L15.0655 7.14969L14.8443 7.483ZM14.7428 7.41562L14.4615 7.13118L14.1118 7.47701L14.5216 7.74893L14.7428 7.41562ZM14.8297 7.32968L15.1109 7.61412L15.1125 7.61252L14.8297 7.32968ZM15.4928 5.92831L15.892 5.95394L15.892 5.95388L15.4928 5.92831ZM7.29746 7.35995L6.97985 7.1168L6.97953 7.11721L7.29746 7.35995ZM7.43711 7.3414L7.67986 7.02348L7.67837 7.02235L7.43711 7.3414ZM8.23008 7.94687L8.47425 7.63003L8.47283 7.62895L8.23008 7.94687ZM8.24863 8.08652L8.56626 8.32965L8.56656 8.32926L8.24863 8.08652ZM8.10898 8.10507L7.86624 8.42299L7.86693 8.42352L8.10898 8.10507ZM7.31602 7.4996L7.07105 7.81583L7.07327 7.81752L7.31602 7.4996ZM21.1197 7.30234L20.8682 6.99134L20.8669 6.99234L21.1197 7.30234ZM21.2594 7.31601L21.5693 7.06314L21.5683 7.06194L21.2594 7.31601ZM21.2457 7.45663L21.4985 7.76664L21.5001 7.76533L21.2457 7.45663ZM20.4732 8.08652L20.2205 7.77652L20.2204 7.77658L20.4732 8.08652ZM20.3326 8.07285L20.0227 8.32571L20.0231 8.32619L20.3326 8.07285ZM20.3473 7.93222L20.0945 7.62222L20.0944 7.62229L20.3473 7.93222ZM14.4 0.399994V0.799994C21.9111 0.799994 28 6.88892 28 14.4H28.4H28.8C28.8 6.44709 22.3529 -6.10948e-06 14.4 -6.10948e-06V0.399994ZM28.4 14.4H28C28 21.9111 21.9111 28 14.4 28V28.4V28.8C22.3529 28.8 28.8 22.3529 28.8 14.4H28.4ZM14.4 28.4V28C6.88893 28 0.8 21.9111 0.8 14.4H0.4H-3.8743e-07C-3.8743e-07 22.3529 6.4471 28.8 14.4 28.8V28.4ZM0.4 14.4H0.8C0.8 6.88892 6.88893 0.799994 14.4 0.799994V0.399994V-6.10948e-06C6.4471 -6.10948e-06 -3.8743e-07 6.44709 -3.8743e-07 14.4H0.4ZM14.4 1.39999V0.999994C6.99938 0.999994 1 6.99938 1 14.4H1.4H1.8C1.8 7.44121 7.44121 1.79999 14.4 1.79999V1.39999ZM1.4 14.4H1C1 21.8006 6.99938 27.8 14.4 27.8V27.4V27C7.44121 27 1.8 21.3588 1.8 14.4H1.4ZM14.4 27.4V27.8C21.8006 27.8 27.8 21.8006 27.8 14.4H27.4H27C27 21.3588 21.3588 27 14.4 27V27.4ZM27.4 14.4H27.8C27.8 6.99938 21.8006 0.999994 14.4 0.999994V1.39999V1.79999C21.3588 1.79999 27 7.44121 27 14.4H27.4ZM14.4 3.10019V3.50019C20.4199 3.50019 25.2998 8.38009 25.2998 14.4H25.6998H26.0998C26.0998 7.93826 20.8617 2.70019 14.4 2.70019V3.10019ZM25.6998 14.4H25.2998C25.2998 20.4199 20.4199 25.2998 14.4 25.2998V25.6998V26.0998C20.8617 26.0998 26.0998 20.8617 26.0998 14.4H25.6998ZM14.4 25.6998V25.2998C8.3801 25.2998 3.50019 20.4199 3.50019 14.4H3.10019H2.70019C2.70019 20.8617 7.93827 26.0998 14.4 26.0998V25.6998ZM3.10019 14.4H3.50019C3.50019 8.38009 8.3801 3.50019 14.4 3.50019V3.10019V2.70019C7.93827 2.70019 2.70019 7.93826 2.70019 14.4H3.10019ZM14.4 3.6998V3.2998C8.26964 3.2998 3.2998 8.26963 3.2998 14.4H3.6998H4.0998C4.0998 8.71146 8.71147 4.0998 14.4 4.0998V3.6998ZM3.6998 14.4H3.2998C3.2998 20.5304 8.26964 25.5002 14.4 25.5002V25.1002V24.7002C8.71147 24.7002 4.0998 20.0885 4.0998 14.4H3.6998ZM14.4 25.1002V25.5002C20.5304 25.5002 25.5002 20.5304 25.5002 14.4H25.1002H24.7002C24.7002 20.0885 20.0885 24.7002 14.4 24.7002V25.1002ZM25.1002 14.4H25.5002C25.5002 8.26963 20.5304 3.2998 14.4 3.2998V3.6998V4.0998C20.0885 4.0998 24.7002 8.71146 24.7002 14.4H25.1002ZM14.4 22.3004L14.4 22.7004C14.2343 22.7004 14.0996 22.5657 14.0996 22.4L14.4996 22.4L14.8996 22.4C14.8996 22.1239 14.6761 21.9004 14.4 21.9004L14.4 22.3004ZM14.4996 22.4H14.0996V24.4H14.4996H14.8996V22.4H14.4996ZM14.4996 24.4L14.0996 24.4C14.0996 24.2343 14.2343 24.0996 14.4 24.0996L14.4 24.4996L14.4 24.8996C14.6761 24.8996 14.8996 24.6761 14.8996 24.4L14.4996 24.4ZM14.4 24.4996L14.4 24.0996C14.5657 24.0996 14.7004 24.2343 14.7004 24.4L14.3004 24.4L13.9004 24.4C13.9004 24.6761 14.1239 24.8996 14.4 24.8996L14.4 24.4996ZM14.3004 24.4H14.7004V22.4H14.3004H13.9004V24.4H14.3004ZM14.3004 22.4L14.7004 22.4C14.7004 22.5657 14.5657 22.7004 14.4 22.7004L14.4 22.3004L14.4 21.9004C14.1239 21.9004 13.9004 22.1239 13.9004 22.4L14.3004 22.4ZM8.09434 20.3238L8.35287 20.629C8.22526 20.7371 8.03646 20.7194 7.93044 20.5949L8.23496 20.3355L8.53948 20.0762C8.36196 19.8677 8.0475 19.8393 7.83581 20.0186L8.09434 20.3238ZM8.23496 20.3355L7.92972 20.5941C7.82167 20.4665 7.83938 20.2777 7.96389 20.1716L8.22324 20.4762L8.4826 20.7807C8.69105 20.6032 8.71946 20.2887 8.5402 20.077L8.23496 20.3355ZM8.22324 20.4762L7.96383 20.1717L7.20504 20.8182L7.46445 21.1227L7.72386 21.4271L8.48265 20.7806L8.22324 20.4762ZM7.46445 21.1227L7.20644 20.817C7.33337 20.7098 7.52185 20.7265 7.62835 20.8516L7.32383 21.1109L7.0193 21.3703C7.19723 21.5792 7.51145 21.6064 7.72246 21.4283L7.46445 21.1227ZM7.32383 21.1109L7.62878 20.8521C7.73831 20.9811 7.71809 21.1693 7.59584 21.274L7.33555 20.9703L7.07525 20.6666C6.86944 20.843 6.8381 21.1568 7.01888 21.3698L7.32383 21.1109ZM7.33555 20.9703L7.59496 21.2748L8.35375 20.6283L8.09434 20.3238L7.83492 20.0193L7.07613 20.6658L7.33555 20.9703ZM20.4234 20.3521L20.198 20.6826L21.0213 21.2441L21.2467 20.9137L21.4721 20.5832L20.6488 20.0217L20.4234 20.3521ZM21.2467 20.9137L21.0202 21.2434C20.8864 21.1515 20.8478 20.9659 20.9426 20.8269L21.273 21.0523L21.6035 21.2778C21.7605 21.0477 21.6977 20.7382 21.4732 20.584L21.2467 20.9137ZM21.273 21.0523L20.9426 20.8269C21.036 20.69 21.2222 20.655 21.3588 20.7476L21.1344 21.0787L20.9099 21.4098C21.1377 21.5642 21.4479 21.5057 21.6034 21.2778L21.273 21.0523ZM21.1344 21.0787L21.36 20.7484L20.5368 20.1859L20.3111 20.5162L20.0855 20.8465L20.9087 21.409L21.1344 21.0787ZM20.3111 20.5162L20.5374 20.1864C20.672 20.2787 20.7094 20.4645 20.6162 20.6025L20.2848 20.3785L19.9534 20.1545C19.7986 20.3835 19.8596 20.6915 20.0848 20.846L20.3111 20.5162ZM20.2848 20.3785L20.6152 20.604C20.5225 20.7397 20.336 20.7767 20.198 20.6825L20.4234 20.3521L20.6489 20.0217C20.4197 19.8653 20.1092 19.9261 19.9544 20.153L20.2848 20.3785ZM13.6764 4.11093L14.008 4.33457C14.1979 4.05304 14.6021 4.05303 14.792 4.33458L15.1236 4.11093L15.4553 3.88729C14.9483 3.13548 13.8517 3.13545 13.3447 3.88729L13.6764 4.11093ZM15.1236 4.11093L14.792 4.33456C15.1778 4.90677 15.323 5.4436 15.2928 5.91545L15.692 5.94101L16.0912 5.96657C16.1349 5.28433 15.9192 4.57524 15.4553 3.8873L15.1236 4.11093ZM15.692 5.94101L15.2928 5.9154C15.2647 6.35396 15.0807 6.75938 14.7544 7.1132L15.0484 7.38437L15.3425 7.65554C15.7781 7.1832 16.05 6.60906 16.0912 5.96662L15.692 5.94101ZM15.0484 7.38437L14.8095 7.70514C15.4219 8.16143 15.8567 9.07578 15.9128 10.0175L16.3121 9.99374L16.7114 9.96994C16.645 8.85531 16.1343 7.69454 15.2874 7.0636L15.0484 7.38437ZM16.3121 9.99374L15.9128 10.0175C15.9664 10.9182 15.6704 11.7604 14.958 12.2189L15.1744 12.5553L15.3909 12.8916C16.4248 12.2263 16.7758 11.0521 16.7114 9.96998L16.3121 9.99374ZM15.1744 12.5553L15.0194 12.924C15.3622 13.0681 15.6443 13.3304 15.8171 13.6606L16.1715 13.4752L16.5259 13.2898C16.2686 12.798 15.8471 12.4041 15.3294 12.1865L15.1744 12.5553ZM16.1715 13.4752L16.5339 13.6444C16.5895 13.5254 16.7134 13.3793 16.9085 13.2366L16.6725 12.9137L16.4364 12.5908C16.1757 12.7814 15.9406 13.0241 15.809 13.306L16.1715 13.4752ZM16.6725 12.9137L16.9085 13.2366C17.1998 13.0237 17.6194 12.8372 18.1031 12.7508L18.0328 12.357L17.9625 11.9633C17.3691 12.0692 16.8341 12.3001 16.4364 12.5907L16.6725 12.9137ZM18.0328 12.357L18.1031 12.7508C19.041 12.5834 20.1912 12.7963 21.1024 13.8818L21.4088 13.6246L21.7151 13.3674C20.5928 12.0304 19.1383 11.7534 17.9625 11.9632L18.0328 12.357ZM21.4088 13.6246L21.6808 13.9179C22.0355 13.5889 22.4434 13.4037 22.8846 13.3753L22.859 12.9762L22.8334 12.577C22.1882 12.6184 21.6108 12.8916 21.1367 13.3314L21.4088 13.6246ZM22.859 12.9762L22.8845 13.3753C23.3564 13.3451 23.8932 13.4903 24.4654 13.8762L24.6891 13.5445L24.9127 13.2129C24.2247 12.749 23.5157 12.5333 22.8334 12.577L22.859 12.9762ZM24.6891 13.5445L24.4654 13.8762C24.747 14.066 24.747 14.4703 24.4654 14.6601L24.6891 14.9918L24.9127 15.3234C25.6645 14.8164 25.6645 13.7199 24.9127 13.2129L24.6891 13.5445ZM24.6891 14.9918L24.4654 14.6601C23.8932 15.046 23.3564 15.1912 22.8845 15.161L22.859 15.5602L22.8334 15.9593C23.5157 16.003 24.2248 15.7873 24.9127 15.3234L24.6891 14.9918ZM22.859 15.5602L22.8846 15.161C22.446 15.1328 22.0406 14.9488 21.6868 14.6225L21.4156 14.9166L21.1445 15.2107C21.6168 15.6462 22.1909 15.9181 22.8334 15.9593L22.859 15.5602ZM21.4156 14.9166L21.0949 14.6776C20.6386 15.2901 19.7242 15.7248 18.7824 15.781L18.8062 16.1803L18.83 16.5796C19.9447 16.5131 21.1055 16.0025 21.7364 15.1556L21.4156 14.9166ZM18.8062 16.1803L18.7825 15.781C17.898 15.8336 17.0692 15.5489 16.6062 14.8652L16.275 15.0894L15.9438 15.3137C16.6158 16.3061 17.7674 16.6428 18.83 16.5796L18.8062 16.1803ZM16.275 15.0894L15.8996 14.9514C15.6741 15.5643 15.088 16 14.4 16V16.4V16.8C15.4358 16.8 16.3136 16.1433 16.6504 15.2275L16.275 15.0894ZM14.4 16.4V16C13.5163 16 12.8 15.2836 12.8 14.4H12.4H12C12 15.7255 13.0745 16.8 14.4 16.8V16.4ZM12.4 14.4H12.8C12.8 13.7633 13.1725 13.2132 13.7136 12.9555L13.5416 12.5943L13.3696 12.2332C12.5612 12.6182 12 13.4424 12 14.4H12.4ZM13.5416 12.5943L13.7382 12.246C13.6245 12.1818 13.4938 12.063 13.3684 11.8915L13.0455 12.1275L12.7226 12.3636C12.8939 12.5979 13.1048 12.8071 13.345 12.9427L13.5416 12.5943ZM13.0455 12.1275L13.3684 11.8915C13.1555 11.6002 12.969 11.1806 12.8826 10.6969L12.4889 10.7672L12.0951 10.8375C12.201 11.4308 12.4319 11.9659 12.7226 12.3636L13.0455 12.1275ZM12.4889 10.7672L12.8826 10.6969C12.7153 9.759 12.9282 8.60878 14.0136 7.69756L13.7564 7.3912L13.4993 7.08485C12.1623 8.20721 11.8853 9.66168 12.0951 10.8375L12.4889 10.7672ZM13.7564 7.3912L14.0497 7.11917C13.7207 6.76453 13.5355 6.35661 13.5072 5.9154L13.108 5.94101L12.7088 5.96662C12.7502 6.61176 13.0234 7.1892 13.4632 7.66324L13.7564 7.3912ZM13.108 5.94101L13.5072 5.91545C13.477 5.4436 13.6222 4.90677 14.008 4.33456L13.6764 4.11093L13.3447 3.8873C12.8808 4.57524 12.6651 5.28433 12.7088 5.96657L13.108 5.94101ZM14.4 12.8004V12.4004C13.2954 12.4004 12.4004 13.2954 12.4004 14.4H12.8004H13.2004C13.2004 13.7373 13.7373 13.2004 14.4 13.2004V12.8004ZM12.8004 14.4H12.4004C12.4004 15.5046 13.2954 16.3996 14.4 16.3996V15.9996V15.5996C13.7373 15.5996 13.2004 15.0627 13.2004 14.4H12.8004ZM14.4 15.9996V16.3996C15.5046 16.3996 16.3996 15.5046 16.3996 14.4H15.9996H15.5996C15.5996 15.0627 15.0627 15.5996 14.4 15.5996V15.9996ZM15.9996 14.4H16.3996C16.3996 13.2954 15.5046 12.4004 14.4 12.4004V12.8004V13.2004C15.0627 13.2004 15.5996 13.7373 15.5996 14.4H15.9996ZM21.3219 13.8307L21.6342 13.5808C20.5557 12.2326 19.1391 11.9568 17.9977 12.1605L18.068 12.5543L18.1382 12.9481C19.0357 12.7879 20.1407 12.9945 21.0095 14.0805L21.3219 13.8307ZM18.068 12.5543L17.9977 12.1605C17.4315 12.2616 16.9256 12.4816 16.5546 12.7529L16.7906 13.0758L17.0267 13.3987C17.2916 13.205 17.682 13.0295 18.1383 12.9481L18.068 12.5543ZM16.7906 13.0758L16.5545 12.7529C16.3654 12.8912 16.2082 13.0447 16.0952 13.2078C15.9844 13.3677 15.9004 13.5602 15.9004 13.7682H16.3004H16.7004C16.7004 13.7756 16.6994 13.7404 16.7528 13.6635C16.8038 13.5898 16.8917 13.4974 17.0267 13.3987L16.7906 13.0758ZM16.3004 13.7682V13.3682H16.2965V13.7682V14.1682H16.3004V13.7682ZM16.2965 13.7682L15.917 13.8945C15.9704 14.0549 16 14.2244 16 14.4H16.4H16.8C16.8 14.1336 16.7549 13.8789 16.676 13.6418L16.2965 13.7682ZM16.4 14.4H16C16 14.5168 15.986 14.6326 15.9606 14.7472L16.3512 14.8336L16.7417 14.92C16.7782 14.7551 16.8 14.5812 16.8 14.4H16.4ZM16.3512 14.8336L16.0039 15.032C16.6007 16.0766 17.7389 16.4446 18.8183 16.3803L18.7945 15.981L18.7708 15.5818C17.8812 15.6347 17.0951 15.3293 16.6985 14.6351L16.3512 14.8336ZM18.7945 15.981L18.8183 16.3803C19.9338 16.3138 21.0838 15.7834 21.6498 14.9344L21.317 14.7125L20.9842 14.4906C20.5944 15.0753 19.7114 15.5256 18.7707 15.5818L18.7945 15.981ZM21.317 14.7125L21.6503 14.9336L21.7177 14.8321L21.3844 14.6109L21.0511 14.3898L20.9837 14.4914L21.317 14.7125ZM21.3844 14.6109L21.0999 14.8922L21.1859 14.9791L21.4703 14.6978L21.7547 14.4166L21.6688 14.3297L21.3844 14.6109ZM21.4703 14.6978L21.1875 14.9807C21.6476 15.4409 22.2149 15.7196 22.8461 15.7601L22.8717 15.3609L22.8973 14.9618C22.4812 14.935 22.0914 14.7533 21.7532 14.415L21.4703 14.6978ZM22.8717 15.3609L22.8461 15.7601C23.4758 15.8004 24.1416 15.6016 24.8004 15.1574L24.5768 14.8258L24.3532 14.4941C23.8096 14.8606 23.3161 14.9886 22.8972 14.9617L22.8717 15.3609ZM24.5768 14.8258L24.8004 15.1574C24.8888 15.0978 24.9613 15.0292 25.021 14.9591L24.7164 14.6998L24.4118 14.4405C24.3926 14.4631 24.3732 14.4806 24.3531 14.4941L24.5768 14.8258ZM24.7164 14.6998V14.2998H23.9V14.6998V15.0998H24.7164V14.6998ZM23.9 14.6998V14.2998C24.0665 14.2998 24.2001 14.435 24.2004 14.5995L23.8004 14.6002L23.4004 14.6009C23.4009 14.8757 23.6232 15.0998 23.9 15.0998V14.6998ZM23.8004 14.6002H24.2004C24.2004 14.7659 24.0657 14.9006 23.9 14.9006V14.5006V14.1006C23.6239 14.1006 23.4004 14.324 23.4004 14.6002H23.8004ZM23.9 14.5006V14.9006H24.8346V14.5006V14.1006H23.9V14.5006ZM24.8346 14.5006L25.2097 14.6394C25.2869 14.4308 25.2945 14.2066 25.2402 13.9983L24.8531 14.0992L24.4661 14.2001C24.4807 14.2561 24.4776 14.3126 24.4594 14.3617L24.8346 14.5006ZM24.8531 14.0992V13.6992H23.9V14.0992V14.4992H24.8531V14.0992ZM23.9 14.0992V13.6992C24.0657 13.6992 24.2004 13.8339 24.2004 13.9996H23.8004H23.4004C23.4004 14.2757 23.6239 14.4992 23.9 14.4992V14.0992ZM23.8004 13.9996L24.2004 14.0011C24.1998 14.1643 24.0674 14.3 23.9 14.3V13.9V13.5C23.6225 13.5 23.4014 13.7249 23.4004 13.9981L23.8004 13.9996ZM23.9 13.9V14.3H24.7652V13.9V13.5H23.9V13.9ZM24.7652 13.9L25.0987 13.6791C25.0228 13.5645 24.9232 13.4617 24.8004 13.3789L24.5768 13.7105L24.3531 14.0422C24.3869 14.065 24.4125 14.0918 24.4317 14.1209L24.7652 13.9ZM24.5768 13.7105L24.8004 13.3789C24.1416 12.9347 23.4758 12.7359 22.8461 12.7762L22.8717 13.1754L22.8972 13.5746C23.3161 13.5477 23.8096 13.6757 24.3531 14.0422L24.5768 13.7105ZM22.8717 13.1754L22.8461 12.7762C22.2149 12.8167 21.6477 13.0954 21.1875 13.5556L21.4703 13.8385L21.7532 14.1213C22.0914 13.783 22.4812 13.6013 22.8973 13.5746L22.8717 13.1754ZM21.4703 13.8385L21.1857 13.5574L21.1076 13.6365L21.3922 13.9176L21.6768 14.1987L21.7549 14.1196L21.4703 13.8385ZM21.3922 13.9176L21.7032 13.666L21.6329 13.5791L21.3219 13.8307L21.0109 14.0822L21.0812 14.1692L21.3922 13.9176ZM6.4 14.3004V14.7004C6.23431 14.7004 6.09961 14.5657 6.09961 14.4H6.49961H6.89961C6.89961 14.1239 6.67614 13.9004 6.4 13.9004V14.3004ZM6.49961 14.4H6.09961C6.09961 14.2343 6.23431 14.0996 6.4 14.0996V14.4996V14.8996C6.67614 14.8996 6.89961 14.6761 6.89961 14.4H6.49961ZM6.4 14.4996V14.0996H4.4V14.4996V14.8996H6.4V14.4996ZM4.4 14.4996V14.0996C4.56569 14.0996 4.70039 14.2343 4.70039 14.4H4.30039H3.90039C3.90039 14.6761 4.12386 14.8996 4.4 14.8996V14.4996ZM4.30039 14.4H4.70039C4.70039 14.5657 4.56569 14.7004 4.4 14.7004V14.3004V13.9004C4.12386 13.9004 3.90039 14.1239 3.90039 14.4H4.30039ZM4.4 14.3004V14.7004H6.4V14.3004V13.9004H4.4V14.3004ZM14.9576 4.22324L15.2893 3.99959C14.8615 3.36536 13.9385 3.36533 13.5107 3.9996L13.8424 4.22324L14.174 4.44687C14.2846 4.28292 14.5154 4.28291 14.626 4.44688L14.9576 4.22324ZM13.8424 4.22324L13.5107 3.99963C13.0666 4.65841 12.8677 5.32419 12.908 5.95388L13.3072 5.92831L13.7064 5.90275C13.6796 5.48393 13.8076 4.99041 14.174 4.44684L13.8424 4.22324ZM13.3072 5.92831L12.908 5.95394C12.9486 6.58507 13.2273 7.15235 13.6875 7.61252L13.9703 7.32968L14.2532 7.04684C13.9149 6.70857 13.7331 6.31883 13.7064 5.90269L13.3072 5.92831ZM13.9703 7.32968L13.6892 7.61428L13.7683 7.6924L14.0494 7.40781L14.3305 7.12321L14.2514 7.04509L13.9703 7.32968ZM14.0494 7.40781L13.7978 7.09683L13.7109 7.16714L13.9625 7.47812L14.2141 7.7891L14.301 7.71879L14.0494 7.40781ZM13.9625 7.47812L13.7126 7.16577C12.3645 8.24431 12.0886 9.66087 12.2924 10.8023L12.6861 10.732L13.0799 10.6617C12.9197 9.76429 13.1264 8.65925 14.2124 7.79047L13.9625 7.47812ZM12.6861 10.732L12.2924 10.8023C12.3935 11.3685 12.6135 11.8744 12.8847 12.2454L13.2076 12.0094L13.5305 11.7733C13.3369 11.5084 13.1614 11.118 13.0799 10.6617L12.6861 10.732ZM13.2076 12.0094L12.8847 12.2455C13.1137 12.5586 13.4036 12.8071 13.7231 12.8783L13.8102 12.4879L13.8972 12.0975C13.8494 12.0868 13.707 12.0146 13.5305 11.7733L13.2076 12.0094ZM13.8102 12.4879L13.9279 12.8702C14.076 12.8245 14.2345 12.8 14.4 12.8V12.4V12C14.155 12 13.9171 12.0364 13.6924 12.1056L13.8102 12.4879ZM14.4 12.4V12.8C14.5427 12.8 14.6826 12.8205 14.8189 12.8574L14.9234 12.4713L15.028 12.0852C14.8302 12.0316 14.6199 12 14.4 12V12.4ZM14.9234 12.4713L15.1145 12.8227C16.1957 12.2349 16.5775 11.0784 16.5122 9.9817L16.1129 10.0055L15.7136 10.0292C15.7674 10.9326 15.4517 11.7288 14.7324 12.1199L14.9234 12.4713ZM16.1129 10.0055L16.5122 9.98165C16.4456 8.86624 15.9152 7.71617 15.0662 7.15018L14.8443 7.483L14.6225 7.81582C15.2071 8.20558 15.6575 9.08858 15.7136 10.0293L16.1129 10.0055ZM14.8443 7.483L15.0655 7.14969L14.9639 7.08231L14.7428 7.41562L14.5216 7.74893L14.6232 7.81631L14.8443 7.483ZM14.7428 7.41562L15.024 7.70006L15.1109 7.61412L14.8297 7.32968L14.5484 7.04525L14.4615 7.13118L14.7428 7.41562ZM14.8297 7.32968L15.1125 7.61252C15.5727 7.15235 15.8514 6.58507 15.892 5.95394L15.4928 5.92831L15.0936 5.90269C15.0669 6.31883 14.8851 6.70857 14.5468 7.04684L14.8297 7.32968ZM15.4928 5.92831L15.892 5.95388C15.9323 5.32419 15.7334 4.65841 15.2893 3.99963L14.9576 4.22324L14.626 4.44684C14.9924 4.99041 15.1204 5.48394 15.0936 5.90275L15.4928 5.92831ZM7.29746 7.35995L7.61507 7.60311C7.5129 7.73657 7.32499 7.75811 7.19585 7.66045L7.43711 7.3414L7.67837 7.02235C7.46154 6.85839 7.1489 6.89599 6.97985 7.1168L7.29746 7.35995ZM7.43711 7.3414L7.19436 7.65932L7.98733 8.26479L8.23008 7.94687L8.47283 7.62895L7.67986 7.02348L7.43711 7.3414ZM8.23008 7.94687L7.98591 8.2637C7.85604 8.16362 7.82974 7.97601 7.93071 7.84378L8.24863 8.08652L8.56656 8.32926C8.73436 8.10948 8.69127 7.79729 8.47424 7.63004L8.23008 7.94687ZM8.24863 8.08652L7.93101 7.84338C8.03255 7.71073 8.22085 7.68766 8.35104 7.78663L8.10898 8.10507L7.86693 8.42352C8.08482 8.58915 8.39774 8.5498 8.56626 8.32965L8.24863 8.08652ZM8.10898 8.10507L8.35173 7.78715L7.55876 7.18168L7.31602 7.4996L7.07327 7.81752L7.86624 8.42299L8.10898 8.10507ZM7.31602 7.4996L7.56097 7.18338C7.68929 7.28278 7.717 7.46961 7.61539 7.6027L7.29746 7.35995L6.97953 7.11721C6.81118 7.33771 6.85594 7.64919 7.07106 7.81582L7.31602 7.4996ZM21.1197 7.30234L21.3713 7.61334C21.2461 7.71456 21.0575 7.70023 20.9504 7.57008L21.2594 7.31601L21.5683 7.06194C21.3915 6.84698 21.0787 6.82106 20.8682 6.99134L21.1197 7.30234ZM21.2594 7.31601L20.9494 7.56888C20.8461 7.4422 20.8626 7.25398 20.9913 7.14794L21.2457 7.45663L21.5001 7.76533C21.7137 7.58933 21.7423 7.27515 21.5693 7.06314L21.2594 7.31601ZM21.2457 7.45663L20.9929 7.14663L20.2205 7.77652L20.4732 8.08652L20.726 8.39652L21.4985 7.76664L21.2457 7.45663ZM20.4732 8.08652L20.2204 7.77658C20.3459 7.67415 20.5351 7.68875 20.6422 7.8195L20.3326 8.07285L20.0231 8.32619C20.2 8.5423 20.5151 8.56865 20.7261 8.39645L20.4732 8.08652ZM20.3326 8.07285L20.6426 7.81998C20.7491 7.95056 20.7263 8.13922 20.6001 8.24215L20.3473 7.93222L20.0944 7.62229C19.8826 7.79505 19.8463 8.10954 20.0227 8.32571L20.3326 8.07285ZM20.3473 7.93222L20.6 8.24222L21.3725 7.61234L21.1197 7.30234L20.8669 6.99234L20.0945 7.62222L20.3473 7.93222Z" fill="white" mask="url(#path-1-outside-1_15_16)"/>
<defs>
<linearGradient id="paint0_linear_15_16" x1="24.4" y1="5.39999" x2="4.4" y2="22.9" gradientUnits="userSpaceOnUse">
<stop stop-color="#FF3D33"/>
<stop offset="0.5" stop-color="#FF8800"/>
<stop offset="1" stop-color="#90FF68"/>
</linearGradient>
</defs>
</svg>
